<?xml version="1.0" encoding="utf-8"?>
<!-- Generator: Adobe Illustrator 27.0.0, SVG Export Plug-In . SVG Version: 6.00 Build 0)  -->
<svg version="1.1" id="레이어_1" xmlns="http://www.w3.org/2000/svg" xmlns:xlink="http://www.w3.org/1999/xlink" x="0px"
	 y="0px" viewBox="0 0 100 100" style="enable-background:new 0 0 100 100;" xml:space="preserve">
<style type="text/css">
	.st0{fill:#5C43FF;}
	.st1{fill:#DEE0E1;}
	.st2{fill:#F28DCD;}
	.st3{fill:#CB5782;}
	.st4{fill:#EC8FCA;}
	.st5{fill:#EE8ECA;}
	.st6{fill:#BA5F7F;}
	.st7{fill:#BB5F7F;}
	.st8{fill:#B3627C;}
	.st9{fill:#B76381;}
	.st10{fill:#FE5687;}
	.st11{fill:#DE6986;}
	.st12{fill:#AF677F;}
	.st13{fill:#FEFEFE;}
	.st14{fill:#FDFDFD;}
	.st15{fill:#FCFCFC;}
	.st16{fill:#FBFBFA;}
	.st17{fill:#F8F8F9;}
	.st18{fill:#FAFAFA;}
	.st19{fill:#F9FAFA;}
	.st20{fill:#FDFC00;}
	.st21{fill:#C1C13C;}
	.st22{fill:#CDD03F;}
</style>
<g id="RRKCtk_00000044890648284617925880000017143252492506741165_">
	<g>
		<path class="st0" d="M8,63c-0.7-1.9-1.4-3.8-1.5-5.8c-0.3-1.3,0.1-2.6-0.3-3.9C4.6,53,5.4,51.8,5.5,51c0.1-0.6,0.4-1.2,0.4-1.8
			c0.2-1,0.8-1.8,1.2-2.7c0.1-0.3,1.3-1-0.1-1.3c-0.3-0.1,0-0.7,0.2-1.1c1.9-4.2,5.6-5.8,9.7-6.7c2.3-0.5,4.7-0.8,7-1.2
			c3.4-0.5,6.4-1.8,8.6-4.4c0.5-0.5,1.2-1.1,0.8-2c-0.4-0.8-1.3-0.8-2-0.9c-0.9-0.1-1.9-0.1-2.8-0.1c-0.9,0-1.1-0.4-0.6-1.1
			c0.4-0.5,0.8-1,1.3-1.6c-0.4-0.3-0.8-0.2-1.1-0.2c-0.6,0-1.3,0.4-1.6-0.2c-0.2-0.5,0.4-1,0.8-1.5c2.3-2.8,5.3-3.7,8.9-3.3
			c0.2,0,0.5,0.1,0.7,0.1c0,0,0.1,0,0.1-0.1c0,0,0-0.1,0-0.1c-1.3-1.7-1.3-1.8,1-2c1.6-0.1,2.9-0.7,3.9-2c0.7-0.8,1.6-1.5,2.4-2.2
			c0.9-0.9,1.7-0.7,2.5,0.2c1.2,1.4,1.9,3,2.5,5.2c0.7-2.2,1.5-3.8,2.6-5.3c0.7-0.9,1.5-1,2.4-0.4c1.1,0.7,2.1,1.5,2.9,2.5
			c0.8,1,1.8,1.5,3,1.4c0.3,0,0.6,0,0.9,0.1c0.5,0.1,1.2,0.1,1.5,0.6c0.3,0.6-0.5,0.8-0.8,1.2c-0.1,0.1-0.2,0.3-0.5,0.7
			c2.6-0.6,4.9-0.5,7.1,0.5c1.5,0.7,2.6,1.7,3.6,3c0.2,0.3,0.6,0.5,0.3,0.9c-0.2,0.4-0.6,0.1-0.9,0.1c-0.5,0-1.1,0-1.7,0
			c0.3,0.8,1,1.1,1.4,1.7c0.4,0.7,0.4,1.1-0.6,1.1c-1.3,0-2.6,0.1-3.8,0.3c-1.1,0.2-1.4,0.9-0.9,1.8c0.7,1.5,2,2.4,3.4,3.1
			c3.2,1.6,6.7,2.1,10.3,2.7c2.2,0.4,4.5,0.8,6.6,1.6c2.6,1.1,4.8,2.8,5.9,5.5c0.2,0.4,0.8,1.1-0.2,1.5c-0.4,0.2,0.1,0.5,0.3,0.7
			c1.2,2,2.5,4.3,1.6,6.4c-0.9,2-0.3,3.9-0.8,5.8c-0.5,2.1-1.3,4-2,6c-1.2,2.4-2.7,4.5-4.2,6.8c-1.4,1.6-2.8,3.2-4.2,4.8
			c-1.3,1.1-2.5,2.1-3.8,3.2c-3.3,2.1-6.6,4.1-10.3,5.5c-11.9,4.5-23.8,5.3-35.9,0.9c-0.6-0.2-1.2-0.4-1.8-0.6
			c-4.1-2-8.2-4.2-11.6-7.3c-0.1-0.1-0.4-0.1-0.5-0.2c-0.6-0.6-1.3-1.2-1.9-1.7c-1.6-1.9-3.2-3.7-4.8-5.6c-0.3-0.4-0.6-0.9-0.8-1.4
			c-0.1-0.8,0.5-0.7,0.9-0.6c0.6,0.1,1.2,0.4,1.6,0.8c5.8,9.7,15.4,13.7,25.6,16.7c3.4,1,6.9,1.4,10.4,1.2
			c8.7-0.4,16.8-2.8,24.4-6.9c3.4-1.9,6.6-4.1,9.1-7.2c1.2-1.5,2.2-3.2,2.9-5c0.2-0.5,0.3-1,0.7-1.4c0.4-0.3,1.1,0,1.5-0.4
			c1.2-2,2.3-4,2.7-6.3c0-0.7,0.2-1.4,0.3-2c0.4-1.6,0.7-3.2,0.4-4.8c-0.1-0.8-0.4-1.6,0.2-2.4c0.2-0.3,0-0.6-0.1-0.8
			c-0.8-1.6-1.7-3.2-3.3-4.3c-0.2-0.1-0.3-0.2-0.5-0.4c-0.3-0.3-0.7-0.6-0.6-1.1c0.1-0.5,0.7-0.5,1.1-0.6c0.3,0,0.6,0,1-0.1
			c-1.1-1.6-2.6-2.4-4.3-3c-2.1-0.8-4.3-1.1-6.5-1.5c-2.4-0.4-4.8-0.8-7.1-1.5c-2.8-0.8-5.5-2.1-7.1-4.8c-1.3-2.1-0.4-4,2-4.3
			c0.7-0.1,1.5-0.1,2.4-0.1c-0.3-0.5-0.8-0.6-1.1-0.9c-0.3-0.3-0.7-0.6-0.6-1.1c0.2-0.6,0.6-0.7,1.1-0.8c0.4-0.1,0.9,0,1.6-0.2
			c-2-1.5-4.2-2.1-6.5-2.3c-0.5-0.1-1.1,0-1.6,0c-1.8,0-1.9-0.2-1.5-2c-3-0.3-5.5,0.8-7.9,2.4c-0.7,0.5-1.3,1-1.9,1.6
			c-1.2,1.1-1.5,1.1-2.7-0.1C45.2,21,42,19.9,38.2,20c-0.1,0.6,0.6,1.2,0,1.7c-0.6,0.6-1.4,0.4-2.1,0.3c-2.5-0.3-4.8,0.2-6.8,1.8
			c-0.2,0.2-0.5,0.4-0.5,0.7c0.4,0.5,1,0.2,1.5,0.3c0.5,0.1,1,0.2,1.2,0.7c0.1,0.5-0.3,0.8-0.6,1.1c-0.3,0.3-0.6,0.5-0.9,0.8
			c0.8,0.1,1.5,0,2.3,0.1c2.5,0.4,3.5,2.5,2.2,4.6c-1.1,1.7-2.7,2.9-4.5,3.7c-3.6,1.7-7.6,2-11.5,2.8c-2.4,0.5-4.8,1-6.9,2.4
			c-0.7,0.5-1.3,1-1.8,1.7c1.4,0.5,1.5,0.7,0.6,2c-1,1.4-2.1,2.8-2.8,4.5c-0.2,0.6-0.7,1.1,0.3,1.5C8.1,51,8.1,51.6,8.1,52
			c-0.5,2.6-0.1,5.1,0.4,7.6c0.1,0.1,0.1,0.3,0.1,0.4c0.2,1.4,0.9,2.7,1.4,4c0.2,0.5,0.6,0.9,0.5,1.5c-0.1,0.4-0.3,0.7-0.8,0.6
			C9.2,65.1,8.6,64.1,8,63z"/>
		<path class="st0" d="M9.8,66.1c0.3-0.1,0.5-0.3,0.6-0.6c0.9,0.2,0.9,1,1.2,1.6c-1.2-2.2-1.8-4.6-2.5-6.9c-0.2-0.5-0.3-1.1-0.4-1.7
			c0-1.7,0-3.4,0-5.1c1.4-6.4,5-11.1,11.2-13.3c6.1-2.2,9.5,0,13,4.7c0.8,1.1,1.6,1.8,2.9,2c1.7,0.3,3.4,0.7,5.1,1
			c1,0.2,1.9,0,2.8-0.5c3.9-2,7.8-2.3,11.8-0.2c1,0.5,2.1,0.6,3.2,0.4c1.9-0.3,3.7-0.9,5.6-1.3c0.8-0.2,1.3-0.7,1.7-1.3
			c0.9-1.2,1.9-2.3,3-3.3c2.4-2.2,5.3-3,8.5-2.4c7,1.4,12.8,8.3,12.9,15.5c0.2,3.8-0.7,7.5-2.2,10.9c-0.5,0.3-1,0.1-1.4-0.2
			c-0.5-0.6-0.1-1.2,0.1-1.8c0.8-2.6,1.5-5.3,1.5-8c0-5.8-2.7-10.1-7.7-12.9c-4.9-2.8-8.6-2.2-12.2,2.1c-1.8,2.1-3.7,3.4-6.4,3.7
			c-0.7,0.1-1.4,0.3-2.2,0.5c-1.9,0.4-2.2,0.2-2.4,2.6c-0.3,3.3-2.1,5.8-5.1,7.3c-1.3,0.6-1.6,1.4-1.7,2.7c0,1.9,0.4,3.7-0.3,5.6
			c-0.6,0.3-0.9-0.1-1.2-0.5c-0.4-1.7-0.2-3.5-0.2-5.3c0-1.1-0.4-1.8-1.5-2.2c-2.2-0.9-4-2.3-5.2-4.4c-0.6-1.1-0.9-2.2-0.8-3.4
			c0.2-1.2-0.4-1.7-1.5-1.8c-1.6-0.3-3.2-0.6-4.8-1c-1.6-0.3-2.8-1.1-3.7-2.5c-0.8-1.3-2-2.3-3.2-3.2c-3.4-2.4-6.7-1.9-10,0.1
			c-2.3,1.4-4.1,3.1-5.6,5.4c-2.1,3.1-2.4,6.4-1.9,9.9c0.4,3,1.3,5.8,2.3,8.6c0.2,0.5,0.6,1.1,0.1,1.7c-0.8-0.4-1.4-1.3-2.4-0.5
			C10.4,67.5,10,66.8,9.8,66.1z"/>
		<path class="st1" d="M6.2,53.3c0.5,1.3,0.1,2.6,0.3,3.9c-0.1-0.2-0.2-0.4-0.3-0.6C6.2,55.5,6.2,54.4,6.2,53.3z"/>
		<path class="st2" d="M50.4,67.3c0-2.3,0.1-4.5,0-6.8c0-0.9,0.3-1.2,1.1-1.5c3.5-1.3,5.9-4.9,5.7-8.7c0-0.9,0.3-1.2,1.1-1.3
			c2.1-0.4,4.2-1,6.4-1.4c1.1-0.2,1.8-0.8,2.5-1.7c0.8-1.1,1.7-2.2,2.8-3.1c3.4-2.8,7.4-2.8,11.6-0.1c6.4,4.1,8.6,10.2,6.6,18.3
			c-0.4,1.5-0.8,3-1.3,4.5c-1.7,5.5-5.4,9.4-10.2,12.4c-8.3,5.3-17.5,8.2-27.3,8.5c-10.9,0.3-20.4-3.7-29.1-9.9c-3-2.1-5.6-4.6-7-8
			c-1.1-3.3-2.3-6.6-2.8-10.1C9.3,50.7,14.3,42.9,21.9,41c3.3-0.8,5.9,0.4,8.2,2.6c0.8,0.7,1.5,1.6,2.1,2.5c0.7,1.2,1.8,1.8,3.1,2
			c2,0.4,4.1,0.8,6.1,1.2c0.4,0.1,0.9,0.1,0.8,0.9c-0.3,4.1,2,7.4,6.1,8.8c0.9,0.3,1.2,0.7,1.2,1.6c-0.1,2,0,4,0,6.1
			c0.5,1.4,0.2,1.8-1.2,1.9c-1.5,0.1-3.1-0.2-4.6-0.3c-5.3-0.4-10.6-1.2-15.2-4.3c-4.6-3.1-5.8-8.2-5-13c0.1-0.6,0.2-1.3,1.2-1.3
			c-2.3-1.4-3.9-1.1-6.3,1.3c1.3-0.3,1.5-0.2,1.3,1c-0.3,2-0.6,4-0.7,6c-0.2,9.3,4.6,15.3,12.6,19c6.8,3.1,13.9,4.2,21.2,3.6
			c9.4-0.8,17.4-4.7,23.4-12.2c2.4-3,3.7-6.6,4.2-10.5c0.2-2-0.3-3.8-0.8-5.7c-0.2-0.7-0.6-1.5-0.3-2.3c0.3-0.6-0.3-0.7-0.6-0.8
			c-1.8-0.9-3.4-0.8-5,0.6c1.1,0.3,1.5,1.2,1.8,2.2c1,3.2-0.4,7.2-3.4,9.8c-3.9,3.4-8.6,5-13.5,6.1c-2.3,0.5-4.7,0.9-7,0.9
			C51,68.6,49.8,68.7,50.4,67.3z"/>
		<path class="st3" d="M90.1,54.5c-0.5-7.4-6-13.7-13-14.9C74,39,71.3,40.1,69,42.2c-0.6,0.5-1.2,1.1-1.6,1.7
			c-1.1,2.2-3.1,2.9-5.3,3.2c-1,0.1-1.9,0.4-2.9,0.6c-1.6,0.4-2.9,0.1-4.4-0.6c-3.8-1.9-7.6-1.4-11.1,0.7c-0.6,0.3-1.1,0.6-1.8,0.4
			c-2.5-0.5-5-1-7.6-1.4c-0.8-0.1-1.1-0.8-1.4-1.4c-1.3-2.2-3-3.9-5.3-5c-3.2-1.5-6.3-0.9-9.2,0.6c-4.7,2.4-7.7,6.2-9,11.3
			c-0.1,0.2-0.2,0.5-0.3,0.7c-0.3,1.1-0.1,2.2-0.2,3.3c0,0.5,0.2,1.2-0.6,1.2c-0.8,0-0.5-0.7-0.6-1.1C7.5,55,8,53.4,7.7,51.9
			c0.1-0.9-0.2-1.3-1.3-0.6c0.5-3.2,2.4-5.4,4.3-7.7c-0.7-0.6-1.3,0.2-2-0.1c0.8-1.6,2.1-2.5,3.6-3.3c2.9-1.6,6.1-1.9,9.3-2.4
			c2.8-0.5,5.6-1,8.3-2.2c1.7-0.8,3.3-1.8,4.2-3.6c1.1-2,0.3-3.7-2-3.9c-0.9-0.1-1.9,0-3,0c0.4-0.8,1-1.1,1.5-1.6
			c0.3-0.2,0.8-0.4,0.6-0.9c-0.2-0.4-0.7-0.3-1.1-0.4c-0.7,0-1.5,0-2.4,0c1.2-2.2,3-3,5.1-3.5c1.3-0.3,2.6-0.3,4-0.1
			c0.5,0.1,1.1,0.4,1.4-0.1c0.3-0.5-0.3-0.8-0.6-1.2c-0.1-0.2-0.3-0.4-0.2-0.8c4-0.1,7.8,0.7,10.6,3.8c1.1,1.2,1.6,1,2.6,0
			c2.4-2.5,5.5-3.8,8.9-4.1c0.6,0,1.2-0.2,1.7,0.2c-1,2.1-1,2.1,1.4,2c2.6-0.1,4.9,0.5,7,1.9c0.4,0.3,1,0.5,1.2,1.2
			c-0.8,0-1.5,0-2.2,0c-0.4,0-1,0-1.2,0.4c-0.2,0.5,0.4,0.7,0.8,1c0.6,0.4,1.3,0.7,1.7,1.5c-1.1,0-2,0-3,0c-1.1,0-2,0.4-2.6,1.4
			c-0.6,1.1,0,1.9,0.6,2.7c1.7,2.3,4.1,3.5,6.7,4.3c3.5,1,7.2,1.4,10.7,2.1c2.7,0.5,5.1,1.5,7.1,3.5c0.2,0.2,0.5,0.5,0.7,0.8
			c0.1,0.1,0.2,0.3,0.3,0.7c-0.8-0.1-1.5-0.2-2.1-0.3c-0.3,0-0.8,0-0.9,0.4c-0.1,0.3,0.3,0.5,0.5,0.6c2.2,1.1,3.1,3.2,4.1,5.2
			c0.2,0.4,0.8,1-0.3,1c-0.3,0-0.1,0.4-0.1,0.6c0.3,2.4,0.6,4.7-0.4,7c-0.2,0.4-0.1,1-0.1,1.5c-0.2,0.3-0.4,0.8-0.9,0.6
			c-0.5-0.2-0.3-0.6-0.2-1C90.3,57.2,90.4,55.9,90.1,54.5z"/>
		<path class="st4" d="M44.5,16.6c0.1,0,0.3,0,0.4,0c1.5-1,1.5-1,2.3,0.7c0.8,1.7,1.3,3.6,1.9,5.8c-1.8-1.5-3.2-3-5-3.8
			c-0.6-0.2-0.4-0.6-0.2-1.1C44.2,17.7,44.7,17.3,44.5,16.6L44.5,16.6z"/>
		<path class="st5" d="M49.7,23.2c0.3-2.8,1.2-5,2.3-7.2c0.3-0.5,0.6-0.5,0.9-0.1c0.2,0.2,0.3,0.4,0.5,0.5c1.8,2,1.8,2-0.4,3.5
			C51.9,20.7,50.9,21.8,49.7,23.2z"/>
		<path class="st6" d="M9.5,60.2c0.7,2.4,1.4,4.8,2.6,7.3c-1.1-0.6-1.2-1.5-1.7-2c-0.8-1.7-1.8-3.4-2.1-5.3
			C8.7,60,9.1,59.9,9.5,60.2z"/>
		<path class="st7" d="M90.1,54.5c0.6,1.3,0.2,2.7,0.2,4.1c0,0.3-0.2,0.6,0.1,0.7c0.2,0,0.5-0.2,0.7-0.4c-0.5,2.4-1.7,4.6-2.9,6.7
			c-0.1-1,0.4-1.9,0.7-2.8C89.9,60.1,90.1,57.4,90.1,54.5z"/>
		<path class="st6" d="M7.7,51.9c0.6,1.5,0.1,3,0.3,4.5c0,0.4-0.2,1.1,0.4,1.1c0.6,0,0.4-0.7,0.4-1.1c0.2-1.1-0.3-2.2,0.3-3.3
			c0,1.9,0,3.8,0,5.6c-0.5,0.3-0.4,1-1,1.3C7.4,57.3,7.3,54.6,7.7,51.9z"/>
		<path class="st8" d="M57.1,18.2c-2.6,0.4-2.3-2.7-4-3.4C54.8,15.5,56,16.8,57.1,18.2z"/>
		<path class="st9" d="M44.5,16.6c-0.7,0.4-1.1,1-1.5,1.7c-0.3,0.6-0.9,0.5-1.2,0.3c-0.4-0.3,0.1-0.7,0.3-0.9c1.1-0.9,1.8-2.2,3.3-3
			C45.3,15.6,44.3,15.8,44.5,16.6C44.5,16.6,44.5,16.6,44.5,16.6z"/>
		<path class="st3" d="M8.3,60c0.1-0.6-0.1-1.4,1-1.3c0.1,0.5,0.2,1,0.3,1.5c-0.4,0.3-0.8,0.3-1.2,0C8.3,60.1,8.2,60,8.3,60z"/>
		<path class="st0" d="M50.4,67.3c0.1,0.5,0.2,0.9,0.9,0.9c7.4-0.6,14.6-1.9,20.5-6.9c2.3-2,3.9-4.5,3.7-7.7c0-0.9-0.3-1.6-0.6-2.4
			c-0.4-1-0.9-1.7-2.1-0.7c1-2.9,5.4-3.6,7.9-0.3c-1.3-0.5-1.4-0.1-1,1c1.9,4.6,1.3,9.1-0.7,13.5c-3.5,7.3-9.6,11.6-16.9,14.2
			c-12.4,4.3-24.4,2.8-35.4-4.4c-6.2-4-8.2-10.3-8.1-17.4c0.1-2,0.5-4,0.9-6c-0.9,0-1.4,1-2.3,1c0.8-1.8,3-3.4,4.7-3.5
			c1.6-0.1,2.9,0.3,3.9,2.1c-2.1-1.1-1.9,0.3-2,1.4c-0.7,6.7,2.1,11.1,8.5,13.8c3.6,1.5,7.4,2,11.3,2.3c1.4,0.1,2.9,0.1,4.3,0.3
			c1.2,0.2,1.7-0.3,1.6-1.5C49.8,66.9,50.1,67.1,50.4,67.3z"/>
		<path class="st10" d="M52.5,57.2c-2.2,1.7-3.2,1.6-6-0.2c-1.5-1-2.7-2.3-3.3-4.1c-0.6-1.7-0.2-3,1.2-4.1c2.3-1.8,8-2.1,10.5-0.6
			c1.1,0.7,1.7,1.6,1.6,2.9c-0.2,1.4-0.5,2.7-1.5,3.8c-0.7,0.4-0.8-0.4-1.3-0.6c-1.4,0.2-1.3,1.1-1.1,2.2
			C52.6,56.7,52.7,56.9,52.5,57.2z"/>
		<path class="st11" d="M53.9,53.7c0.5,0.2,0.1,1.2,1,1.2c-0.6,1-1.3,1.9-2.4,2.3c0-0.2-0.1-0.4-0.3-0.6
			C52.6,55.5,53.6,54.8,53.9,53.7z"/>
		<path class="st0" d="M58.3,58.2c2.1-2.4,7.2-3,9.9-1C64.8,57,61.6,57.2,58.3,58.2z"/>
		<path class="st0" d="M57.9,55.1c1.7-2.7,5.4-3.9,8.6-2.7C63.5,53,60.5,53.4,57.9,55.1z"/>
		<path class="st0" d="M32.7,59.5c2.7-1.9,7.2-2,9.8-0.2C39,58.8,35.9,59.1,32.7,59.5z"/>
		<path class="st0" d="M33.8,54.8c2.9-1.3,6.8-0.4,9.1,2C39.9,55.6,37.1,55,33.8,54.8z"/>
		<path class="st0" d="M43,62.1c-3,0.2-5.3,1.2-7.8,2.2C36.7,62,40,61,43,62.1z"/>
		<path class="st0" d="M66,61.7c-2.6-0.6-5.1-0.9-7.8-1C60,59.5,64.1,59.9,66,61.7z"/>
		<path class="st0" d="M40.1,61c-0.3,0-0.5-0.2-0.5-0.4c-0.1-0.3,0.1-0.5,0.4-0.6c0.3-0.1,0.6,0.1,0.6,0.5
			C40.6,60.7,40.3,60.9,40.1,61z"/>
		<path class="st0" d="M60.7,59c-0.1,0.3-0.2,0.4-0.5,0.4c-0.3,0-0.5-0.2-0.4-0.5c0-0.2,0.2-0.5,0.5-0.4
			C60.5,58.5,60.6,58.7,60.7,59z"/>
		<path class="st0" d="M49.8,37.4c1.7-3.4,4.5-5.1,7.6-4.6c3.3,0.5,5.7,3.2,5.9,6.4c0.2,2.9-2.1,6-5,6.7c-3.3,0.9-6.6-0.6-8.1-3.6
			c-0.2-0.4-0.3-0.7-0.5-1.1C49,39.9,48.9,38.6,49.8,37.4z"/>
		<path class="st0" d="M48.6,42.4c-1.7,2.8-3.9,4.5-7.4,4c-2.8-0.4-4.6-2-5.4-4.6c-0.8-2.7-0.1-5.1,2-7c2.2-1.9,4.6-2.3,7.3-1.2
			c1.6,0.7,2.7,1.9,3.5,3.4C49.8,38.8,49.4,40.6,48.6,42.4z"/>
		<path class="st0" d="M36,34c0.1-3.4,2.4-6.3,5-6.7c2.5-0.3,4.9,1.2,5.7,4C42.3,28.5,38.9,29.9,36,34z"/>
		<path class="st0" d="M51.8,31.4c0.8-3.1,3-4.6,5.5-4.4c2.4,0.2,5,3.1,5.2,6.6C59.6,29.4,56.3,27.9,51.8,31.4z"/>
		<path class="st12" d="M48.6,42.4c0.6-1.8,0.6-3.6,0-5.3c0.4,0.2,0.7,0.6,1.2,0.3c-0.3,1.3-0.3,2.6-0.1,3.8c-0.2,0-0.4-0.7-0.5,0
			C49.1,41.7,49.2,42.1,48.6,42.4z"/>
		<path class="st13" d="M44.6,74.2c0.1-1.3,0.2-2.7,0.2-4c0-0.7,0.1-1.1,1-1c2.9,0.3,5.7,0.2,8.6-0.1c0.8-0.1,1.1,0,1.2,1
			c0.1,2.6,0.2,5.1,0.4,7.7c0.1,0.8-0.1,1.1-0.9,1.2c-3.3,0.5-6.6,0.5-9.9,0.2c-0.6-0.1-0.8-0.3-0.8-0.9
			C44.4,76.9,44.5,75.5,44.6,74.2C44.6,74.2,44.6,74.2,44.6,74.2z"/>
		<path class="st13" d="M65.6,74.7c0.3,0.8-0.2,1.1-1,1.5c-2.2,1-4.5,1.8-6.8,2.3c-0.6,0.1-0.9,0.2-0.9-0.6
			c-0.1-2.7-0.3-5.4-0.5-8.1c0-0.6,0.2-0.9,0.8-1c2.3-0.2,4.4-0.9,6.6-1.6c0.9-0.3,1,0,1.1,0.7C65,70.1,65.3,72.3,65.6,74.7z"/>
		<path class="st13" d="M34.7,75.4c0.4-2.6,0.7-4.5,0.9-6.4c0.1-0.6,0.3-1.1,1.1-0.9c2.1,0.5,4.2,0.9,6.4,0.9c0.6,0,0.7,0.3,0.7,0.9
			c-0.2,2.7-0.3,5.4-0.4,8.1c0,0.7-0.3,0.9-1,0.8c-1.9-0.4-3.8-0.8-5.6-1.3C35.4,77.1,34.1,76.7,34.7,75.4z"/>
		<path class="st13" d="M33.9,76.4c-2.9-1-5.3-2.5-7.6-4.3c-0.5-0.4-0.5-0.8-0.4-1.3c0.6-1.8,1.1-3.6,1.7-5.3c0.2-0.7,0.5-0.7,1-0.4
			c1.8,1,3.7,2,5.8,2.5c0.5,0.1,0.6,0.3,0.5,0.8C34.3,71,34.1,73.7,33.9,76.4z"/>
		<path class="st14" d="M72,62.7c0.8,2,1.5,3.8,2.2,5.6c0.2,0.5,0.1,0.8-0.2,1.2c-1.9,2.2-4.3,3.7-6.7,5.3c-0.6,0.4-0.7,0.2-0.8-0.4
			c-0.3-2.4-0.6-4.7-0.9-7.1c-0.1-0.5,0.1-0.8,0.6-1C68.2,65.3,70.1,64.3,72,62.7z"/>
		<path class="st15" d="M24.2,60.7c0.9,1.2,1.7,2.3,2.7,3.2c0.3,0.3,0.4,0.6,0.3,1c-0.8,2-1.4,4.1-2,6.4c-1.9-1.8-3.2-3.8-4.1-6
			c-0.1-0.3,0-0.6,0.2-0.8C22.3,63.3,23.2,62,24.2,60.7z"/>
		<path class="st15" d="M76,57.5c0.7,0.8,1.2,1.5,1.9,2c1.2,0.9,1.3,1.9,0.6,3.2c-1,1.8-1.8,3.8-3.4,5.4c-0.8-1.9-1.5-3.7-2.2-5.5
			c-0.2-0.4,0-0.6,0.2-0.9C74.3,60.5,75.2,59.2,76,57.5z"/>
		<path class="st16" d="M20.8,63.8c-0.8-2.3-1.1-4.5-0.8-6.7c0.1-1.3,1.6-1.3,2.6-2.2c0.2,1.7,0.5,3.2,1,4.5
			c0.2,0.4,0.1,0.6-0.1,0.9C22.5,61.4,21.7,62.5,20.8,63.8z"/>
		<path class="st17" d="M79.3,59.8c-1-1.1-1.8-1.9-2.6-2.7c-0.3-0.4-0.5-3.2-0.1-3.4c0.7-0.4,1.5,0,2.3,0c0.7,0,0.6,0.5,0.6,0.9
			C79.8,56.1,79.7,57.8,79.3,59.8z"/>
		<path class="st18" d="M20,55.8c-0.1-1.8,0.1-3.5,0.5-5.1c0.3-1.1,1.4-1,2.2-0.9c0.8,0.1,0.2,0.9,0.2,1.3c0,0.4-0.2,0.8-0.1,1.2
			C23,54.3,21.7,55.1,20,55.8z"/>
		<path class="st19" d="M78,52.6c-1.3-0.1-2.7-1.5-2.8-2.8c0-0.2,0.1-0.3,0.2-0.5c0.9-0.6,2.8,0,3.2,1c0.1,0.3,0.2,0.7,0.3,1
			C79.3,52.4,79.2,52.9,78,52.6z"/>
		<path class="st0" d="M53.9,53.7c0.4,1.6-0.9,2.1-1.8,2.9C51.5,55.1,52.4,53.7,53.9,53.7z"/>
		<path class="st0" d="M48.5,56.5c-0.9-0.4-1.4-1-1.8-1.6c-0.2-0.4-0.5-0.9,0.1-1.2c0.5-0.2,0.9,0,1.2,0.5
			C48.4,54.9,48.7,55.6,48.5,56.5z"/>
		<path class="st20" d="M51.7,43c-1.8-2.3-1.7-5.4,0.1-7.4c2-2.2,5.2-2.8,7.7-1.3c2.4,1.5,3.5,4.5,2.6,7.2c-0.9,2.6-3.6,4.2-6.5,3.8
			c-0.5-0.1-0.9-0.2-1.4-0.4c-0.2-0.3,0-0.6,0.2-0.8c0.5-0.5,1.2-0.8,1.2-1.6c0.1-0.9-0.4-1.7-1.3-1.9c-0.9-0.2-1.3,0.4-1.6,1.1
			c-0.2,0.4-0.1,0.9-0.4,1.3C52.1,43.2,51.9,43.1,51.7,43z"/>
		<path class="st21" d="M54.5,44.2c-0.1,0.2-0.2,0.4-0.3,0.6c-1.1-0.3-1.9-0.9-2.5-1.9c0.2,0,0.4,0,0.6-0.1
			C53.2,43.2,53.8,43.7,54.5,44.2z"/>
		<path class="st20" d="M44.5,45c-1.7,1-4.1,0.8-5.8-0.5c-2.7-2.1-3.2-5.8-1.1-8.4c2.2-2.7,6-3.1,8.6-0.9c2.6,2.1,2.8,5.7,0.5,8.4
			c-0.3,0.2-0.5,0-0.7-0.3c-0.1-0.3-0.1-0.7-0.2-1c-0.1-0.9-0.3-1.6-1.4-1.5C43.6,41,42.9,42,43.2,43c0.1,0.5,0.5,0.8,0.8,1.2
			C44.2,44.4,44.6,44.6,44.5,45z"/>
		<path class="st22" d="M44.5,45c-0.2-0.2-0.4-0.4-0.5-0.5c0.7-0.5,1.4-1,2.3-1.1c0.2,0.1,0.4,0.2,0.5,0.3
			C46.2,44.4,45.5,45,44.5,45z"/>
		<path class="st0" d="M54.5,44.2c-1,0-1.7-0.5-2.2-1.3c-0.2-1.8,0.4-2.8,1.6-2.9c1.1,0,2.1,0.9,2.2,2.2
			C56.1,43.3,55.5,44,54.5,44.2z"/>
		<path class="st0" d="M46.2,43.3c-0.6,0.7-1.3,1.2-2.3,1.1c-1.5-1.1-1.7-2.9-0.3-3.7c0.7-0.4,1.4-0.5,2.1-0.1
			C46.7,41.3,46.4,42.4,46.2,43.3z"/>
	</g>
</g>
</svg>
