<?xml version="1.0" encoding="utf-8"?>
<!-- Generator: Adobe Illustrator 27.0.0, SVG Export Plug-In . SVG Version: 6.00 Build 0)  -->
<svg version="1.1" id="레이어_1" xmlns="http://www.w3.org/2000/svg" xmlns:xlink="http://www.w3.org/1999/xlink" x="0px"
	 y="0px" viewBox="0 0 100 100" style="enable-background:new 0 0 100 100;" xml:space="preserve">
<style type="text/css">
	.st0{fill:#E9EDF5;}
	.st1{fill:#999999;}
	.st2{fill:#6E6E6E;}
</style>
<path d="M63.1,48.5c-0.1-0.5-0.2-1-0.3-1.5c-0.4-1.5-1.2-2.8-2.2-4.1c-1.7-2.2-3.7-4-5.9-5.6c-1.4-1-2.8-1.9-4.3-2.9
	c-0.3-0.2-0.6-0.2-0.9,0c-3.4,2.1-6.5,4.4-9.1,7.4c-1.2,1.4-2.2,2.8-2.9,4.5c-1.4,3.5-0.1,7.3,2.5,9.2c2.6,1.9,5.9,1.7,8.3-0.3v5
	h-5.2c-1.5,0-2.7,1.2-2.7,2.7c0,1.5,1.2,2.7,2.7,2.7h13.8c1.5,0,2.7-1.2,2.7-2.7c0-1.5-1.2-2.7-2.7-2.7h-5.2v-5
	c1,0.9,2.2,1.4,3.7,1.5c2.3,0.2,4.2-0.6,5.7-2.3c1.2-1.3,1.8-2.8,2-4.6c0-0.1,0-0.1,0-0.2C63.1,49.3,63.1,48.9,63.1,48.5z"/>
<g>
	<g>
		<g>
			<path class="st0" d="M26.8,90.4c-5,0-9-4.1-9-9l0-50.4c0-2.4,0.9-4.7,2.6-6.4c1.7-1.7,4-2.6,6.4-2.6l36.4,0c5,0,9,4.1,9,9l0,50.4
				c0,2.4-0.9,4.7-2.6,6.4c-1.7,1.7-4,2.6-6.4,2.6L26.8,90.4L26.8,90.4z"/>
			<path class="st1" d="M63.2,22.2c4.9,0,8.8,3.9,8.8,8.8l0,50.4c0,4.9-3.9,8.8-8.8,8.8l-36.4,0c0,0,0,0,0,0c-4.9,0-8.8-3.9-8.8-8.8
				L18,31c0-4.9,3.9-8.8,8.8-8.8L63.2,22.2C63.2,22.2,63.2,22.2,63.2,22.2 M63.2,21.7L63.2,21.7l-36.4,0c-5.1,0-9.3,4.2-9.3,9.3
				l0,50.4c0,5.1,4.2,9.3,9.3,9.3l36.4,0c5.1,0,9.3-4.2,9.3-9.3l0-50.4C72.5,25.9,68.3,21.7,63.2,21.7L63.2,21.7z"/>
		</g>
		<g id="YCKK1F.tif_00000134224956010025295510000004043813944052015254_">
			<g>
				<g>
					<path d="M41,64.5c-1.1,0-2.1-0.4-3-1c-2-1.5-2.8-4.4-1.8-6.8c0.4-1.1,1.1-2.2,2.1-3.3c1.7-1.9,3.8-3.6,6.5-5.3
						c0.1-0.1,0.3-0.1,0.4-0.1c0.2,0,0.3,0.1,0.5,0.2c0.3,0.2,0.6,0.4,0.9,0.6c0.7,0.5,1.4,0.9,2.1,1.5c1.7,1.3,3.1,2.6,4.2,4
						c0.8,1,1.3,2,1.6,3c0.1,0.3,0.1,0.5,0.2,0.8l0.1,0.3l0,0.9l0,0.1c-0.2,1.4-0.6,2.5-1.5,3.4c-1,1.2-2.3,1.7-3.7,1.7
						c-0.2,0-0.3,0-0.5,0c-1.5-0.1-2.8-0.9-3.7-2.3l0,0c-0.2,0.2-0.4,0.4-0.5,0.7C43.7,64,42.4,64.5,41,64.5z"/>
					<path class="st2" d="M45.2,48.3c0.1,0,0.2,0,0.3,0.1c1,0.7,2,1.3,3,2.1c1.5,1.1,3,2.4,4.1,4c0.7,0.9,1.2,1.8,1.5,2.9
						c0.1,0.4,0.2,0.7,0.2,1.1c0,0.3,0,0.6,0,0.9c0,0.1,0,0.1,0,0.2c-0.1,1.2-0.6,2.3-1.4,3.2c-1,1.1-2.1,1.7-3.5,1.7
						c-0.2,0-0.3,0-0.5,0c-1.6-0.2-2.8-1-3.6-2.3c0-0.1-0.1-0.1-0.1-0.2c-0.3,0.3-0.5,0.7-0.8,0.9c-0.9,1-2.2,1.5-3.5,1.5
						c-1,0-2-0.3-2.9-1c-1.8-1.4-2.7-4-1.8-6.5c0.5-1.2,1.2-2.2,2.1-3.2c1.9-2.1,4.1-3.8,6.5-5.2C45,48.4,45.1,48.3,45.2,48.3
						 M45.2,47.8L45.2,47.8c-0.2,0-0.4,0.1-0.6,0.2c-2.8,1.7-4.9,3.4-6.6,5.3c-1,1.1-1.7,2.2-2.1,3.3c-1,2.5-0.2,5.5,1.9,7.1
						c0.9,0.7,2,1.1,3.2,1.1c1.4,0,2.8-0.6,3.8-1.7c0.1-0.1,0.3-0.3,0.4-0.5c1,1.2,2.2,2,3.7,2.1c0.2,0,0.4,0,0.5,0
						c1.5,0,2.8-0.6,3.9-1.8c0.9-1,1.4-2.1,1.5-3.5l0-0.1l0-0.1l0-0.1l0-0.3l0-0.6l0-0.1l0-0.1c0-0.1,0-0.2-0.1-0.3
						c0-0.3-0.1-0.5-0.2-0.8c-0.3-1-0.8-2-1.6-3c-1.1-1.4-2.5-2.8-4.2-4.1c-0.7-0.5-1.4-1-2.1-1.5c-0.3-0.2-0.6-0.4-0.9-0.6
						C45.6,47.9,45.4,47.8,45.2,47.8L45.2,47.8z"/>
				</g>
			</g>
		</g>
		<g id="YCKK1F.tif_00000055701631218285803400000013424956212267965849_">
			<g>
				<g>
					<path d="M62.5,79c-0.4,0-0.7-0.1-1-0.3c-0.7-0.5-0.9-1.4-0.6-2.2c0.1-0.4,0.4-0.7,0.7-1c0.5-0.6,1.1-1.1,2-1.6l0.1,0l0.2,0
						c0.1,0,0.2,0,0.2,0.1l0.3,0.2c0.2,0.1,0.4,0.3,0.6,0.4c0.5,0.4,0.9,0.8,1.3,1.2c0.3,0.3,0.4,0.6,0.5,0.9c0,0.1,0,0.2,0.1,0.2
						l0,0.1l0,0.3c-0.1,0.5-0.2,0.9-0.5,1.2C65.9,78.8,65.5,79,65,79c-0.1,0-0.1,0-0.2,0c-0.4,0-0.8-0.2-1.1-0.6c0,0,0,0,0,0
						C63.4,78.8,62.9,79,62.5,79z"/>
					<path class="st2" d="M63.7,73.9C63.7,73.9,63.8,74,63.7,73.9c0.4,0.2,0.7,0.4,1,0.6c0.5,0.3,0.9,0.7,1.2,1.2
						c0.2,0.3,0.4,0.5,0.5,0.9c0,0.1,0,0.2,0.1,0.3c0,0.1,0,0.2,0,0.3c0,0,0,0,0,0c0,0.4-0.2,0.7-0.4,1c-0.3,0.3-0.6,0.5-1.1,0.5
						c0,0-0.1,0-0.1,0c-0.5,0-0.8-0.3-1.1-0.7c0,0,0,0,0-0.1c-0.1,0.1-0.1,0.2-0.2,0.3c-0.3,0.3-0.7,0.5-1,0.5
						c-0.3,0-0.6-0.1-0.9-0.3c-0.5-0.4-0.8-1.2-0.5-1.9c0.1-0.4,0.4-0.7,0.6-1C62.3,74.9,62.9,74.4,63.7,73.9
						C63.7,74,63.7,73.9,63.7,73.9 M63.7,73.4c-0.1,0-0.2,0-0.4,0.1c-0.9,0.5-1.5,1-2,1.6c-0.3,0.4-0.6,0.7-0.7,1.1
						c-0.4,0.9-0.1,2,0.7,2.5c0.3,0.3,0.7,0.4,1.2,0.4c0.5,0,0.9-0.2,1.3-0.5c0.3,0.3,0.7,0.4,1.1,0.5c0.1,0,0.1,0,0.2,0
						c0.5,0,1-0.2,1.4-0.7c0.3-0.3,0.5-0.8,0.5-1.2l0-0.1l0,0l0-0.1l0-0.1l0-0.1l0-0.1l0-0.1c0-0.1,0-0.2-0.1-0.3
						c-0.1-0.3-0.3-0.7-0.5-1C66,75,65.6,74.6,65,74.2c-0.2-0.2-0.4-0.3-0.6-0.4l-0.3-0.2C64,73.5,63.8,73.4,63.7,73.4L63.7,73.4z"
						/>
				</g>
			</g>
		</g>
		<g>
			<g>
				<path d="M23.3,32.9l2.4-6h1.4l2.4,6h-1.9l-0.4-1.2l-1.7,0l-0.4,1.2H23.3z M26.1,30.4l0.8,0l-0.4-1.1L26.1,30.4z"/>
				<path class="st2" d="M27,27.1l2.2,5.5l-1.3,0l-0.4-1.2l-2,0L25,32.7l-1.3,0l2.2-5.5L27,27.1 M25.7,30.7l1.5,0l-0.7-2.1
					L25.7,30.7 M27.4,26.6l-0.3,0l-1.1,0l-0.3,0l-0.1,0.3l-2.2,5.5l-0.3,0.7l0.7,0l1.3,0l0.4,0l0.1-0.3l0.3-0.9l1.3,0l0.3,0.9
					l0.1,0.3l0.4,0l1.3,0l0.7,0l-0.3-0.7l-2.2-5.5L27.4,26.6L27.4,26.6z M26.4,30.2l0-0.1L26.4,30.2L26.4,30.2L26.4,30.2z"/>
			</g>
		</g>
		<g id="YCKK1F.tif_00000170965982391835005970000012037086359746330809_">
			<g>
				<g>
					<path d="M26.5,38.8c-0.1,0-0.2,0-0.2-0.1L26,38.6c-0.2-0.1-0.4-0.3-0.6-0.4c-0.5-0.4-0.9-0.8-1.3-1.2c-0.3-0.3-0.4-0.6-0.5-0.9
						c0-0.1,0-0.2-0.1-0.2l0-0.1v-0.3c0.1-0.5,0.2-0.9,0.5-1.2c0.3-0.4,0.8-0.6,1.2-0.6c0.1,0,0.1,0,0.2,0c0.4,0,0.8,0.2,1.1,0.6
						c0,0,0,0,0,0c0.3-0.3,0.8-0.5,1.2-0.5c0.4,0,0.7,0.1,1,0.3c0.7,0.5,0.9,1.4,0.6,2.2c-0.1,0.4-0.4,0.7-0.7,1
						c-0.5,0.6-1.1,1.1-2,1.6l-0.1,0L26.5,38.8z"/>
					<path class="st2" d="M27.7,33.8c0.3,0,0.6,0.1,0.9,0.3c0.5,0.4,0.8,1.2,0.5,1.9c-0.1,0.4-0.4,0.7-0.6,1
						c-0.6,0.6-1.2,1.1-1.9,1.6c0,0-0.1,0-0.1,0c0,0-0.1,0-0.1,0c-0.3-0.2-0.6-0.4-0.9-0.6c-0.5-0.3-0.9-0.7-1.2-1.2
						c-0.2-0.3-0.4-0.5-0.5-0.9c0-0.1,0-0.2-0.1-0.3c0-0.1,0-0.2,0-0.3c0,0,0,0,0,0c0-0.4,0.2-0.7,0.4-1c0.3-0.3,0.6-0.5,1.1-0.5
						c0,0,0.1,0,0.1,0c0.5,0,0.8,0.3,1.1,0.7c0,0,0,0,0,0.1c0.1-0.1,0.1-0.2,0.2-0.3C27,34,27.4,33.8,27.7,33.8 M27.7,33.3
						c-0.5,0-0.9,0.2-1.3,0.5c-0.3-0.3-0.7-0.4-1.1-0.5c-0.1,0-0.1,0-0.2,0c-0.5,0-1,0.2-1.4,0.7c-0.3,0.3-0.5,0.8-0.5,1.2l0,0.1
						l0,0l0,0.1l0,0.1l0,0.1l0,0.1l0,0.1c0,0.1,0,0.2,0.1,0.3c0.1,0.3,0.3,0.7,0.5,1c0.4,0.5,0.8,0.9,1.3,1.3
						c0.2,0.2,0.4,0.3,0.6,0.4l0.3,0.2c0.1,0.1,0.2,0.1,0.4,0.1c0.1,0,0.2,0,0.4-0.1c0.9-0.5,1.5-1,2-1.6c0.3-0.4,0.6-0.7,0.7-1.1
						c0.4-0.9,0.1-2-0.7-2.5C28.5,33.5,28.1,33.3,27.7,33.3L27.7,33.3z"/>
				</g>
			</g>
		</g>
		<g>
			<g>
				<path d="M63,85.7l-2.4-6l1.9,0l0.4,1.2h1.7l0.4-1.2h1.9l-2.4,6H63z M63.7,83.2l0.4-1.1h-0.8L63.7,83.2z"/>
				<path class="st2" d="M66.5,79.9l-2.2,5.5l-1.1,0l-2.2-5.5l1.3,0l0.4,1.2l2,0l0.4-1.2L66.5,79.9 M64.5,81.8l-1.5,0l0.7,2.1
					L64.5,81.8 M67.2,79.4l-0.7,0l-1.3,0l-0.4,0l-0.1,0.3l-0.3,0.9l-1.3,0l-0.3-0.9l-0.1-0.3l-0.4,0l-1.3,0l-0.7,0l0.3,0.7l2.2,5.5
					l0.1,0.3l0.3,0l1.1,0l0.3,0l0.1-0.3L67,80L67.2,79.4L67.2,79.4z M63.7,82.3L63.7,82.3l0,0.1L63.7,82.3L63.7,82.3z"/>
			</g>
		</g>
		<g id="YCKK1F.tif_00000141428440871540168710000011191934438331756973_">
			<g>
				<g>
					<path d="M45,26.9c-0.2,0-0.4-0.1-0.5-0.2c-0.4-0.2-0.7-0.5-1.1-0.7c-0.8-0.5-1.7-1.1-2.5-1.7c-2-1.5-3.6-3-4.9-4.7
						c-0.9-1.2-1.5-2.3-1.9-3.5c-0.1-0.3-0.1-0.6-0.2-0.9l-0.1-0.4l0-1.1l0-0.1c0.2-1.6,0.7-2.9,1.7-4c1.2-1.3,2.7-2,4.3-2
						c0.2,0,0.4,0,0.6,0c1.8,0.2,3.3,1.1,4.4,2.7l0.1-0.1c0.2-0.3,0.4-0.5,0.6-0.8c1.1-1.2,2.6-1.9,4.2-1.9c1.3,0,2.5,0.4,3.5,1.2
						c2.4,1.8,3.3,5.1,2.1,7.9c-0.5,1.3-1.3,2.6-2.5,3.8c-2,2.2-4.4,4.2-7.6,6.2C45.3,26.9,45.1,26.9,45,26.9z"/>
					<path class="st2" d="M49.9,8c1.2,0,2.3,0.4,3.4,1.1c2.1,1.6,3.2,4.7,2.1,7.6c-0.6,1.4-1.4,2.6-2.4,3.8
						c-2.2,2.5-4.8,4.4-7.6,6.1c-0.1,0.1-0.2,0.1-0.4,0.1c-0.1,0-0.3,0-0.4-0.1c-1.2-0.8-2.4-1.6-3.5-2.4c-1.8-1.3-3.5-2.8-4.8-4.6
						c-0.8-1-1.4-2.1-1.8-3.4c-0.1-0.4-0.2-0.9-0.3-1.3c0-0.3,0-0.7,0-1c0-0.1,0-0.1,0-0.2c0.1-1.4,0.7-2.7,1.6-3.8
						C36.9,8.6,38.3,8,40,8c0.2,0,0.4,0,0.6,0c1.8,0.2,3.2,1.1,4.3,2.7c0,0.1,0.1,0.1,0.1,0.2c0.3-0.4,0.6-0.8,0.9-1.1
						C47,8.6,48.4,8,49.9,8 M49.9,7.5c-1.7,0-3.2,0.7-4.4,1.9C45.3,9.6,45.1,9.8,45,10c-1.1-1.5-2.6-2.3-4.4-2.5c-0.2,0-0.4,0-0.6,0
						c-1.7,0-3.3,0.7-4.5,2.1c-1,1.1-1.6,2.5-1.8,4.1c0,0,0,0,0,0.1l0,0.1l0,0.1l0,0.1l0,1l0,0.1l0,0.1c0,0.1,0.1,0.3,0.1,0.4
						c0.1,0.3,0.1,0.6,0.2,0.9c0.3,1.2,0.9,2.3,1.9,3.5c1.3,1.7,2.9,3.2,4.9,4.7c0.8,0.6,1.7,1.2,2.5,1.7c0.4,0.2,0.7,0.5,1.1,0.7
						c0.2,0.1,0.4,0.2,0.7,0.2c0.2,0,0.4-0.1,0.6-0.2c3.2-2,5.7-4,7.7-6.2c1.2-1.3,2-2.6,2.5-3.9C57,14,56,10.5,53.6,8.7
						C52.5,7.9,51.2,7.5,49.9,7.5L49.9,7.5z"/>
				</g>
			</g>
		</g>
		<g id="YCKK1F.tif_00000103966148668185933850000008079903982343060616_">
			<g>
				<g>
					<path class="st0" d="M42,23c-0.8,0-1.5-0.3-2.2-0.7c-1.5-1.1-2-3.2-1.3-4.9c0.3-0.8,0.8-1.6,1.5-2.4c1.2-1.4,2.7-2.6,4.7-3.8
						c0.1-0.1,0.2-0.1,0.4-0.1c0.1,0,0.3,0,0.4,0.1l0.6,0.4c0.5,0.3,1,0.7,1.5,1c1.2,0.9,2.2,1.8,3,2.9c0.6,0.7,0.9,1.4,1.1,2.1
						c0.1,0.2,0.1,0.4,0.1,0.6l0,0.2l0,0.7l-0.3,0.1l0.2,0c-0.1,0.9-0.5,1.8-1.1,2.4C50,22.5,49.1,23,48,23c-0.1,0-0.3,0-0.4,0
						c-1.1-0.1-2-0.6-2.7-1.6c-0.1,0.1-0.2,0.3-0.4,0.4C43.9,22.5,43,23,42,23z"/>
					<path class="st1" d="M45,11.3c0.1,0,0.2,0,0.2,0.1c0.7,0.5,1.4,0.9,2.1,1.5c1.1,0.8,2.1,1.7,2.9,2.8c0.5,0.6,0.9,1.3,1.1,2
						c0.1,0.3,0.1,0.5,0.2,0.8c0,0.2,0,0.4,0,0.6c0,0,0,0.1,0,0.1c-0.1,0.9-0.4,1.6-1,2.3c-0.7,0.8-1.5,1.2-2.5,1.2
						c-0.1,0-0.2,0-0.4,0c-1.1-0.1-2-0.7-2.6-1.6C45,21,45,21,45,21c-0.2,0.2-0.4,0.5-0.6,0.7c-0.7,0.7-1.6,1.1-2.5,1.1
						c-0.7,0-1.4-0.2-2-0.7c-1.3-1-2-2.9-1.3-4.6c0.3-0.9,0.9-1.6,1.5-2.3c1.3-1.5,2.9-2.7,4.6-3.7C44.8,11.3,44.9,11.3,45,11.3
						 M45,10.8c-0.2,0-0.3,0-0.5,0.1c-2,1.2-3.5,2.4-4.7,3.8c-0.7,0.8-1.2,1.6-1.6,2.4c-0.7,1.9-0.1,4.1,1.4,5.2
						c0.7,0.5,1.5,0.8,2.3,0.8c1.1,0,2.1-0.4,2.8-1.2c0.1-0.1,0.1-0.1,0.2-0.2c0.7,0.8,1.6,1.3,2.6,1.4c0.1,0,0.3,0,0.4,0
						c1.1,0,2.1-0.5,2.9-1.3c0.6-0.7,1-1.6,1.1-2.6l0,0l0-0.1l0-0.1l0-0.1l0-0.3l0-0.3l0-0.1l0-0.1l0-0.2c0-0.2-0.1-0.4-0.1-0.6
						c-0.2-0.7-0.6-1.4-1.2-2.2c-0.8-1-1.8-2-3-2.9c-0.5-0.4-1-0.7-1.5-1.1c-0.2-0.1-0.4-0.3-0.6-0.4C45.3,10.9,45.2,10.8,45,10.8
						L45,10.8z"/>
				</g>
			</g>
		</g>
		<g id="YCKK1F.tif_00000077287043498871071540000002498911156233689257_">
			<g>
				<g>
					<path d="M44.9,16.9l-0.1-0.1l-0.2-0.2c-0.2-0.1-0.4-0.2-0.6-0.4c-0.5-0.3-0.8-0.7-1.1-1.1c-0.2-0.3-0.4-0.5-0.4-0.8
						c0-0.1,0-0.1,0-0.2l0-0.1v-0.2c0-0.4,0.2-0.8,0.4-1c0.3-0.3,0.7-0.5,1.1-0.5c0.1,0,0.1,0,0.2,0c0.4,0,0.7,0.2,1,0.5
						c0,0,0,0,0,0c0.3-0.3,0.7-0.5,1.1-0.5c0.3,0,0.6,0.1,0.9,0.3c0.6,0.4,0.8,1.3,0.5,2c-0.1,0.3-0.3,0.6-0.6,0.9
						c-0.5,0.5-1,0.9-1.7,1.4l-0.1,0L44.9,16.9L44.9,16.9z"/>
					<path class="st2" d="M46.1,12.5c0.3,0,0.5,0.1,0.7,0.2c0.5,0.4,0.7,1,0.5,1.7c-0.1,0.3-0.3,0.6-0.5,0.8c-0.5,0.5-1.1,1-1.7,1.3
						c0,0-0.1,0-0.1,0c0,0-0.1,0-0.1,0c-0.3-0.2-0.5-0.3-0.8-0.5c-0.4-0.3-0.8-0.6-1.1-1c-0.2-0.2-0.3-0.5-0.4-0.7
						c0-0.1,0-0.2-0.1-0.3c0-0.1,0-0.1,0-0.2c0,0,0,0,0,0c0-0.3,0.1-0.6,0.4-0.8c0.2-0.3,0.6-0.4,0.9-0.4c0,0,0.1,0,0.1,0
						c0.4,0,0.7,0.3,0.9,0.6c0,0,0,0,0,0c0.1-0.1,0.1-0.2,0.2-0.2C45.4,12.7,45.7,12.5,46.1,12.5 M46.1,12c-0.4,0-0.8,0.1-1.1,0.4
						c-0.3-0.2-0.6-0.3-0.9-0.4c-0.1,0-0.1,0-0.2,0c-0.5,0-0.9,0.2-1.3,0.6c-0.3,0.3-0.4,0.7-0.5,1.1l0,0.1l0,0l0,0.2l0,0.1l0,0.1
						l0,0.1c0,0.1,0,0.2,0.1,0.2c0.1,0.3,0.2,0.6,0.5,0.9c0.3,0.4,0.7,0.8,1.2,1.1c0.2,0.1,0.4,0.3,0.6,0.4l0.2,0.2
						c0.1,0.1,0.2,0.1,0.4,0.1c0.1,0,0.2,0,0.3-0.1c0.7-0.5,1.3-0.9,1.8-1.4c0.3-0.3,0.5-0.6,0.6-1c0.3-0.8,0.1-1.8-0.6-2.3
						C46.8,12.2,46.4,12,46.1,12L46.1,12z"/>
				</g>
			</g>
		</g>
		<g>
			<path d="M26.6,99.1c-1.9,0-3.5-1.6-3.5-3.5c0-1.9,1.6-3.5,3.5-3.5l1.9,0c0-1.4,1.2-2.5,2.6-2.5l6.1,0c1.4,0,2.6,1.1,2.6,2.5
				c0,0.4-0.1,0.9-0.3,1.2c0.5,0.6,0.8,1.4,0.8,2.2c0,0.9-0.4,1.8-1,2.5c-0.7,0.7-1.5,1-2.5,1L26.6,99.1z"/>
			<path class="st2" d="M37.1,89.9c1.3,0,2.3,1,2.3,2.3c0,0.5-0.1,0.9-0.4,1.3c0.5,0.6,0.9,1.3,0.9,2.2v0c0,1.8-1.5,3.2-3.2,3.2
				l-10.1,0c0,0,0,0,0,0c-1.8,0-3.2-1.5-3.2-3.2v0c0-1.8,1.5-3.2,3.2-3.2l2.1,0c0-0.1,0-0.2,0-0.2c0-1.3,1-2.3,2.3-2.3L37.1,89.9
				C37.1,89.9,37.1,89.9,37.1,89.9 M37.1,89.4L37.1,89.4l-6.1,0c-0.7,0-1.4,0.3-2,0.8c-0.5,0.5-0.7,1.1-0.8,1.7l-1.6,0
				c-1,0-1.9,0.4-2.6,1.1c-0.7,0.7-1.1,1.6-1.1,2.6c0,2.1,1.7,3.7,3.7,3.7l10.1,0c2.1,0,3.7-1.7,3.7-3.7c0-0.8-0.3-1.6-0.8-2.2
				c0.2-0.4,0.3-0.8,0.3-1.2C39.9,90.6,38.7,89.4,37.1,89.4L37.1,89.4z"/>
		</g>
		<g>
			<path d="M53.3,99.1c-1.9,0-3.5-1.6-3.5-3.5c0-0.8,0.3-1.6,0.8-2.2c-0.2-0.4-0.3-0.8-0.3-1.2c0-1.4,1.1-2.5,2.5-2.6l6.1,0
				c1.4,0,2.5,1.1,2.6,2.5l1.9,0c1.9,0,3.5,1.6,3.5,3.5c0,1.9-1.6,3.5-3.5,3.5L53.3,99.1L53.3,99.1z"/>
			<path class="st2" d="M59,89.9c1.3,0,2.3,1,2.3,2.3c0,0.1,0,0.2,0,0.2l2.1,0c0,0,0,0,0,0c1.8,0,3.2,1.5,3.2,3.2v0
				c0,1.8-1.5,3.2-3.2,3.2l-10.1,0c0,0,0,0,0,0c-1.8,0-3.2-1.5-3.2-3.2v0c0-0.8,0.3-1.6,0.9-2.2c-0.2-0.4-0.4-0.8-0.4-1.3
				c0-1.3,1-2.3,2.3-2.3L59,89.9C59,89.9,59,89.9,59,89.9 M59,89.4L59,89.4l-6.1,0c-1.5,0-2.8,1.3-2.8,2.8c0,0.4,0.1,0.8,0.3,1.2
				c-0.5,0.6-0.8,1.4-0.8,2.2c0,2.1,1.7,3.7,3.7,3.7l10.1,0c2.1,0,3.7-1.7,3.7-3.7c0-2.1-1.7-3.7-3.7-3.7l-1.6,0
				C61.6,90.5,60.4,89.4,59,89.4L59,89.4z"/>
		</g>
	</g>
	<g>
		<path d="M18.2,54.3c-0.6,0-1.2-0.3-1.7-0.7l-6.8-7.5c-0.3-0.4-0.5-0.9-0.6-1.4c-0.1-0.7,0.1-1.5,0.7-2l7.5-6.8
			c0.4-0.4,1-0.6,1.5-0.6c0.6,0,1.2,0.3,1.7,0.7c0.8,0.9,0.8,2.3-0.1,3.2l-5.9,5.4l5.4,6c0.8,0.9,0.8,2.3-0.1,3.2
			C19.3,54.1,18.7,54.3,18.2,54.3z"/>
		<path class="st2" d="M18.8,35.5c0.5,0,1.1,0.2,1.5,0.6C21,37,21,38.2,20.2,39L14,44.5l5.6,6.2c0.7,0.8,0.7,2.1-0.1,2.8
			c-0.4,0.3-0.9,0.5-1.3,0.5c-0.5,0-1.1-0.2-1.5-0.6l-6.8-7.5c-0.3-0.3-0.5-0.8-0.5-1.2C9.2,44,9.4,43.3,10,42.9l7.5-6.8
			C17.8,35.7,18.3,35.5,18.8,35.5 M18.8,35c-0.6,0-1.2,0.2-1.7,0.6l-7.5,6.8C9,43,8.7,43.9,8.9,44.7c0,0.6,0.3,1.1,0.6,1.5l6.8,7.5
			c0.5,0.5,1.1,0.8,1.8,0.8c0.6,0,1.2-0.2,1.7-0.6c1-0.9,1.1-2.5,0.2-3.5l-5.3-5.8l5.7-5.2c0.5-0.4,0.8-1.1,0.8-1.7
			c0-0.7-0.2-1.3-0.6-1.8C20.2,35.3,19.5,35,18.8,35L18.8,35z"/>
	</g>
	<g>
		<path d="M80.7,43.5c-0.2,0-0.5,0-0.7-0.1l-9.6-3.2c-0.6-0.2-1-0.6-1.3-1.1c-0.3-0.5-0.3-1.1-0.1-1.7c0.3-0.9,1.2-1.5,2.1-1.5
			c0.2,0,0.5,0,0.7,0.1l6.3,2.1l-1.2-6.5c-0.2-1.2,0.6-2.4,1.8-2.6c0.1,0,0.3,0,0.4,0c1.1,0,2,0.8,2.2,1.8l1.9,10
			c0.2,0.9-0.3,1.8-1,2.3C81.7,43.3,81.2,43.5,80.7,43.5L80.7,43.5z"/>
		<path class="st2" d="M79.1,29.1c0.9,0,1.8,0.7,2,1.6l1.9,10c0.2,0.8-0.2,1.6-0.9,2.1c-0.4,0.3-0.8,0.5-1.3,0.5
			c-0.2,0-0.4,0-0.6-0.1l-9.6-3.2c-1-0.3-1.6-1.5-1.3-2.5c0.3-0.8,1.1-1.4,1.9-1.4c0.2,0,0.4,0,0.6,0.1l6.7,2.2l-1.3-6.9
			c-0.2-1.1,0.5-2.1,1.6-2.3C78.8,29.1,79,29.1,79.1,29.1 M79.1,28.6c-0.2,0-0.3,0-0.5,0c-1.4,0.3-2.2,1.6-2,2.9l1.1,6.1l-5.9-1.9
			c-0.3-0.1-0.5-0.1-0.8-0.1c-1.1,0-2,0.7-2.4,1.7c-0.4,1.3,0.3,2.7,1.6,3.2l9.6,3.2c0.3,0.1,0.5,0.1,0.8,0.1c0.6,0,1.1-0.2,1.6-0.5
			c0.9-0.5,1.3-1.6,1.1-2.6l-1.9-10C81.3,29.5,80.3,28.6,79.1,28.6L79.1,28.6z"/>
	</g>
	<g>
		<path d="M66.3,85.2l13.1-69.4c-0.7,0.3-1.4,0.5-2.2,0.5c-1.4,0-2.7-0.6-3.7-1.6c-1.7-1.9-1.9-4.8-0.5-7c0.6-1,1.5-1.9,2.7-2.8
			c2-1.6,4.4-2.8,7.4-4c0.1,0,0.2-0.1,0.3-0.1c0.2,0,0.4,0.1,0.6,0.2l0.8,0.7c0.6,0.6,1.2,1.2,1.8,1.8c1.4,1.6,2.5,3.1,3.4,4.7
			c0.6,1.2,0.9,2.2,1,3.2c0,0.3,0,0.5,0,0.8l0,0.3l-0.2,0.9l0,0.1l-0.1,0.1c-0.4,1.3-1.1,2.3-2.1,3c-1,0.7-2,1.1-3.1,1.1l0,0
			c-0.5,0-0.9-0.1-1.4-0.2c-0.9-0.3-1.7-0.7-2.3-1.4L68.8,85.7L66.3,85.2z"/>
		<path class="st2" d="M83.4,1.1c0.1,0,0.3,0.1,0.4,0.2c0.9,0.9,1.7,1.7,2.6,2.6c1.3,1.4,2.4,2.9,3.3,4.7c0.5,1,0.9,2,1,3.1
			c0,0.4,0,0.7,0,1.1c-0.1,0.3-0.1,0.6-0.2,0.9c0,0,0,0.1-0.1,0.1c-0.4,1.2-1,2.2-2,2.9c-0.9,0.7-1.9,1-2.9,1
			c-0.4,0-0.9-0.1-1.4-0.2c-1.1-0.3-1.9-0.9-2.5-1.7L68.6,85.4l-2-0.4l13.2-69.7c-0.8,0.5-1.7,0.7-2.5,0.7c-1.3,0-2.5-0.5-3.5-1.6
			c-1.5-1.7-1.9-4.5-0.5-6.7c0.7-1.1,1.6-2,2.6-2.8c2.2-1.7,4.7-2.9,7.3-3.9C83.2,1.1,83.3,1.1,83.4,1.1 M83.4,0.6
			c-0.1,0-0.3,0-0.4,0.1c-3,1.2-5.4,2.4-7.4,4c-1.2,0.9-2.1,1.8-2.7,2.9c-1.5,2.3-1.2,5.4,0.6,7.3c1,1.1,2.4,1.7,3.9,1.7
			c0.6,0,1.3-0.1,1.9-0.3l-13,68.7L66,85.4l0.5,0.1l2,0.4L69,86l0.1-0.5l13-68.7c0.6,0.5,1.3,0.9,2,1.1c0.5,0.1,1,0.2,1.5,0.2
			c1.1,0,2.2-0.4,3.2-1.2c1-0.8,1.8-1.8,2.1-3.2l0-0.1l0,0l0-0.1l0.1-0.6l0-0.2l0-0.1l0-0.1c0-0.1,0-0.2,0-0.3c0-0.3,0-0.5,0-0.8
			c-0.1-1.1-0.4-2.1-1-3.3c-0.8-1.6-1.9-3.2-3.4-4.8c-0.6-0.6-1.2-1.2-1.8-1.8c-0.3-0.3-0.5-0.5-0.8-0.8C83.9,0.7,83.7,0.6,83.4,0.6
			L83.4,0.6z"/>
	</g>
</g>
</svg>
