<?xml version="1.0" encoding="utf-8"?>
<!-- Generator: Adobe Illustrator 27.0.0, SVG Export Plug-In . SVG Version: 6.00 Build 0)  -->
<svg version="1.1" id="레이어_1" xmlns="http://www.w3.org/2000/svg" xmlns:xlink="http://www.w3.org/1999/xlink" x="0px"
	 y="0px" viewBox="0 0 100 100" style="enable-background:new 0 0 100 100;" xml:space="preserve">
<style type="text/css">
	.st0{fill:#E9F5F3;}
	.st1{fill:#C23A00;}
	.st2{fill:#FF4D00;}
</style>
<g>
	<g>
		<g>
			<path class="st0" d="M29.1,88c-3.5,0-6.4-2.9-6.4-6.4l-0.2-52.7c0-3.5,2.8-6.4,6.4-6.4l39.4-0.1c3.5,0,6.4,2.9,6.4,6.4l0.2,52.7
				c0,1.7-0.7,3.3-1.9,4.5c-1.2,1.2-2.8,1.9-4.5,1.9L29.1,88z"/>
			<path class="st1" d="M68.3,22.6c3.4,0,6.1,2.7,6.1,6.1l0.2,52.7c0,3.4-2.7,6.2-6.1,6.2l-39.4,0.1c0,0,0,0,0,0
				c-3.4,0-6.1-2.7-6.1-6.1l-0.2-52.7c0-3.4,2.7-6.2,6.1-6.2L68.3,22.6C68.3,22.6,68.3,22.6,68.3,22.6 M68.3,22.1L68.3,22.1
				L68.3,22.1l-39.4,0.1c-1.8,0-3.4,0.7-4.7,2c-1.3,1.3-1.9,2.9-1.9,4.7l0.2,52.7c0,3.7,3,6.6,6.6,6.6l39.4-0.1c3.7,0,6.6-3,6.6-6.7
				L75,28.7C74.9,25.1,72,22.1,68.3,22.1L68.3,22.1z"/>
		</g>
		<g id="YCKK1F.tif_00000117637864817749437390000011101024780996056976_">
			<g>
				<g>
					<path class="st2" d="M48.7,63.1c-0.2,0-0.3,0-0.5-0.1l-0.9-0.6c-0.7-0.5-1.4-0.9-2-1.4c-1.6-1.2-3-2.5-4-3.8
						c-0.8-1-1.2-1.9-1.5-2.8c-0.1-0.2-0.1-0.5-0.2-0.7l-0.1-0.3l0-0.9l0-0.1c0.1-1.3,0.6-2.4,1.4-3.3c1-1.1,2.2-1.7,3.6-1.7
						c0.2,0,0.3,0,0.5,0c1.5,0.1,2.7,0.9,3.6,2.1l0,0c0.2-0.2,0.3-0.4,0.5-0.6c0.9-1,2.2-1.5,3.5-1.5c1,0,2,0.3,2.9,1
						c2,1.4,2.7,4.2,1.8,6.5c-0.4,1.1-1.1,2.1-2,3.1c-1.6,1.8-3.6,3.4-6.2,5.1C49,63,48.9,63.1,48.7,63.1z"/>
					<path class="st1" d="M52.7,47.5c0.9,0,1.9,0.3,2.7,0.9c1.7,1.3,2.6,3.8,1.7,6.2c-0.5,1.1-1.1,2.1-2,3.1c-1.8,2-3.9,3.6-6.2,5
						c-0.1,0.1-0.2,0.1-0.3,0.1c-0.1,0-0.2,0-0.3-0.1c-1-0.6-1.9-1.3-2.9-2c-1.5-1.1-2.8-2.3-4-3.8c-0.6-0.8-1.2-1.7-1.5-2.7
						c-0.1-0.3-0.2-0.7-0.2-1c0-0.3,0-0.6,0-0.8c0-0.1,0-0.1,0-0.2c0.1-1.2,0.5-2.2,1.3-3.1c0.9-1,2.1-1.6,3.4-1.6
						c0.2,0,0.3,0,0.5,0c1.5,0.1,2.6,0.9,3.5,2.2c0,0.1,0.1,0.1,0.1,0.2c0.3-0.3,0.5-0.6,0.7-0.9C50.3,48,51.5,47.5,52.7,47.5
						 M52.7,47c-1.4,0-2.7,0.6-3.7,1.6c-0.1,0.1-0.2,0.3-0.4,0.4c-0.9-1.2-2.1-1.8-3.6-2c-0.2,0-0.3,0-0.5,0c-1.5,0-2.7,0.6-3.8,1.8
						c-0.8,0.9-1.3,2.1-1.5,3.4l0,0l0,0.1l0,0.1l0,0.1l0,0.4l0,0.4l0,0.1l0,0.1c0,0.1,0,0.2,0.1,0.3c0,0.2,0.1,0.5,0.2,0.8
						c0.3,1,0.8,1.9,1.6,2.9c1.1,1.4,2.4,2.6,4.1,3.9c0.7,0.5,1.4,1,2,1.4c0.3,0.2,0.6,0.4,0.9,0.6c0.2,0.1,0.4,0.2,0.6,0.2
						c0.2,0,0.4-0.1,0.6-0.2c2.6-1.6,4.6-3.3,6.3-5.1c0.9-1.1,1.6-2.1,2-3.2c1-2.4,0.2-5.3-1.9-6.8C54.9,47.4,53.8,47,52.7,47
						L52.7,47z"/>
				</g>
			</g>
		</g>
		<g id="YCKK1F.tif_00000127765865649472398460000015532132029048341418_">
			<g>
				<g>
					<path class="st2" d="M30.9,38.6l-0.2-0.1l-0.3-0.2c-0.2-0.1-0.4-0.3-0.6-0.4c-0.5-0.4-0.9-0.8-1.2-1.2
						c-0.2-0.3-0.4-0.6-0.5-0.9c0-0.1,0-0.2-0.1-0.2l0-0.1l0-0.2c0.1-0.5,0.2-0.8,0.5-1.1c0.3-0.4,0.7-0.6,1.2-0.6
						c0.1,0,0.1,0,0.2,0c0.4,0,0.8,0.2,1.1,0.5c0,0,0,0,0,0c0.3-0.3,0.7-0.5,1.2-0.5c0.3,0,0.7,0.1,1,0.3c0.6,0.5,0.9,1.4,0.6,2.1
						c-0.1,0.3-0.3,0.7-0.6,1c-0.5,0.6-1.1,1-1.9,1.5l-0.1,0L30.9,38.6L30.9,38.6z"/>
					<path class="st1" d="M32.1,33.8c0.3,0,0.6,0.1,0.8,0.3c0.5,0.4,0.8,1.1,0.5,1.9c-0.1,0.3-0.3,0.6-0.6,0.9
						c-0.5,0.6-1.2,1.1-1.8,1.5c0,0-0.1,0-0.1,0c0,0-0.1,0-0.1,0c-0.3-0.2-0.6-0.4-0.9-0.6c-0.4-0.3-0.8-0.7-1.2-1.1
						c-0.2-0.2-0.4-0.5-0.4-0.8c0-0.1,0-0.2-0.1-0.3c0-0.1,0-0.2,0-0.2c0,0,0,0,0,0c0-0.3,0.2-0.7,0.4-0.9c0.3-0.3,0.6-0.5,1-0.5
						c0,0,0.1,0,0.1,0c0.4,0,0.8,0.3,1,0.6c0,0,0,0,0,0c0.1-0.1,0.1-0.2,0.2-0.3C31.4,33.9,31.8,33.8,32.1,33.8 M32.1,33.3
						c-0.4,0-0.9,0.2-1.2,0.5c-0.3-0.2-0.6-0.4-1-0.4c-0.1,0-0.1,0-0.2,0c-0.5,0-1,0.2-1.4,0.6c-0.3,0.3-0.5,0.7-0.5,1.2l0,0.1l0,0
						l0,0.2l0,0.1l0,0.1l0,0.1c0,0.1,0,0.2,0.1,0.3c0.1,0.3,0.3,0.6,0.5,1c0.3,0.4,0.8,0.8,1.3,1.2c0.2,0.1,0.4,0.3,0.6,0.4l0.3,0.2
						c0.1,0.1,0.2,0.1,0.4,0.1c0.1,0,0.2,0,0.4-0.1c0.8-0.5,1.4-1,1.9-1.6c0.3-0.3,0.5-0.7,0.7-1.1c0.3-0.9,0.1-1.9-0.7-2.4
						C32.9,33.4,32.5,33.3,32.1,33.3L32.1,33.3z"/>
				</g>
			</g>
		</g>
		<g>
			<g>
				<path class="st2" d="M30.2,27.1l1.4,0l2.4,5.8l-1.8,0l-0.4-1.2l-1.6,0l-0.4,1.2l-1.8,0L30.2,27.1z M30.6,30.6l0.7,0l-0.4-1
					L30.6,30.6z"/>
				<path class="st1" d="M31.4,27.4l2.2,5.3l-1.3,0l-0.4-1.2l-1.9,0l-0.4,1.2l-1.3,0l2.1-5.3L31.4,27.4 M30.2,30.8l1.4,0l-0.7-2
					L30.2,30.8 M31.8,26.9l-0.3,0l-1,0l-0.3,0l-0.1,0.3l-2.1,5.3l-0.3,0.7l0.7,0l1.3,0l0.4,0l0.1-0.3l0.3-0.8l1.2,0l0.3,0.8l0.1,0.3
					l0.4,0l1.3,0l0.7,0l-0.3-0.7l-2.2-5.3L31.8,26.9L31.8,26.9z M30.9,30.3L30.9,30.3L30.9,30.3L30.9,30.3L30.9,30.3z"/>
			</g>
		</g>
		<g id="YCKK1F.tif_00000132784454044075319870000009236805816738605482_">
			<g>
				<g>
					<path class="st2" d="M65.5,76.9c-0.3,0-0.7-0.1-1-0.3c-0.6-0.5-0.9-1.4-0.6-2.1c0.1-0.3,0.3-0.7,0.6-1c0.5-0.6,1.1-1,1.9-1.5
						l0.1,0l0.2,0c0.1,0,0.2,0,0.2,0.1l0.3,0.2c0.2,0.1,0.4,0.3,0.6,0.4c0.5,0.4,0.9,0.8,1.2,1.2c0.2,0.3,0.4,0.6,0.5,0.9
						c0,0.1,0,0.2,0.1,0.2l0,0.1l0,0.3c-0.1,0.5-0.2,0.8-0.5,1.1c-0.3,0.4-0.7,0.6-1.2,0.6c-0.1,0-0.1,0-0.2,0
						c-0.4,0-0.8-0.2-1.1-0.5c0,0,0,0,0,0C66.4,76.7,65.9,76.9,65.5,76.9z"/>
					<path class="st1" d="M66.7,72.1C66.7,72.1,66.7,72.1,66.7,72.1c0.4,0.2,0.7,0.4,1,0.6c0.4,0.3,0.8,0.7,1.2,1.1
						c0.2,0.2,0.4,0.5,0.4,0.8c0,0.1,0,0.2,0.1,0.3c0,0.1,0,0.2,0,0.2c0,0,0,0,0,0c0,0.3-0.2,0.7-0.4,0.9c-0.3,0.3-0.6,0.5-1,0.5
						c0,0-0.1,0-0.1,0c-0.4,0-0.8-0.3-1-0.6c0,0,0,0,0,0c-0.1,0.1-0.1,0.2-0.2,0.3c-0.3,0.3-0.6,0.4-1,0.4c-0.3,0-0.6-0.1-0.8-0.3
						c-0.5-0.4-0.8-1.1-0.5-1.9c0.1-0.3,0.3-0.6,0.6-0.9C65.3,73,65.9,72.5,66.7,72.1C66.6,72.1,66.7,72.1,66.7,72.1 M66.7,71.6
						c-0.1,0-0.2,0-0.4,0.1c-0.8,0.5-1.4,1-1.9,1.6c-0.3,0.3-0.5,0.7-0.7,1.1c-0.3,0.9-0.1,1.9,0.7,2.4c0.3,0.2,0.7,0.4,1.1,0.4
						c0.4,0,0.9-0.2,1.2-0.5c0.3,0.2,0.6,0.4,1,0.4c0.1,0,0.1,0,0.2,0c0.5,0,1-0.2,1.4-0.6c0.3-0.3,0.5-0.7,0.5-1.2l0-0.1l0,0l0-0.2
						l0-0.1l0-0.1l0-0.1c0-0.1,0-0.2-0.1-0.3c-0.1-0.3-0.3-0.6-0.5-1c-0.3-0.4-0.8-0.8-1.3-1.2c-0.2-0.1-0.4-0.3-0.6-0.4l-0.3-0.2
						C66.9,71.6,66.8,71.6,66.7,71.6L66.7,71.6z"/>
				</g>
			</g>
		</g>
		<g>
			<g>
				<path class="st2" d="M63.7,77.5l1.8,0l0.4,1.2l1.6,0l0.4-1.2l1.8,0l-2.3,5.8l-1.4,0L63.7,77.5z M66.7,80.9l0.4-1l-0.7,0
					L66.7,80.9z"/>
				<path class="st1" d="M69.4,77.7L67.2,83l-1,0L64,77.8l1.3,0l0.4,1.2l1.9,0l0.4-1.2L69.4,77.7 M67.4,79.6l-1.4,0l0.7,2L67.4,79.6
					 M70.1,77.2l-0.7,0l-1.3,0l-0.4,0l-0.1,0.3l-0.3,0.8l-1.2,0l-0.3-0.8l-0.1-0.3l-0.4,0l-1.3,0l-0.7,0l0.3,0.7l2.2,5.3l0.1,0.3
					l0.3,0l1,0l0.3,0l0.1-0.3l2.1-5.3L70.1,77.2L70.1,77.2z M66.7,80.1L66.7,80.1L66.7,80.1L66.7,80.1L66.7,80.1z"/>
			</g>
		</g>
		<g id="YCKK1F.tif_00000179630377608811326470000008273424805304702609_">
			<g>
				<g>
					<path class="st2" d="M43.9,27.2c-1.2,0-2.4-0.4-3.3-1.1c-2.3-1.7-3.2-4.9-2.1-7.6c0.5-1.3,1.3-2.5,2.3-3.7
						c1.9-2.1,4.2-4,7.3-5.9c0.2-0.1,0.3-0.1,0.5-0.1c0.2,0,0.3,0.1,0.5,0.2c0.3,0.2,0.7,0.5,1,0.7c0.8,0.5,1.6,1.1,2.4,1.6
						c1.9,1.4,3.5,2.9,4.7,4.5c0.9,1.2,1.5,2.2,1.8,3.3c0.1,0.3,0.1,0.6,0.2,0.9l0.1,0.4l0,0.5l0,0.5l0,0.1
						c-0.2,1.6-0.7,2.8-1.6,3.9c-1.2,1.3-2.6,1.9-4.2,1.9c-0.2,0-0.4,0-0.6,0c-1.7-0.2-3.1-1-4.2-2.5l-0.1,0.1
						c-0.2,0.3-0.4,0.5-0.6,0.7C46.9,26.6,45.4,27.2,43.9,27.2z"/>
					<path class="st1" d="M48.6,9c0.1,0,0.2,0,0.4,0.1c1.1,0.8,2.3,1.5,3.4,2.3c1.7,1.3,3.3,2.7,4.6,4.4c0.8,1,1.4,2,1.7,3.2
						c0.1,0.4,0.2,0.8,0.3,1.2c0,0.3,0,0.6,0,1c0,0.1,0,0.1,0,0.2c-0.1,1.4-0.6,2.6-1.6,3.6c-1.1,1.2-2.4,1.9-4,1.9
						c-0.2,0-0.4,0-0.5,0c-1.8-0.2-3.1-1.1-4.1-2.5c0-0.1-0.1-0.1-0.1-0.2c-0.3,0.4-0.6,0.7-0.9,1.1c-1.1,1.1-2.5,1.7-3.9,1.7
						c-1.1,0-2.2-0.4-3.2-1.1c-2.1-1.5-3.1-4.5-2-7.3c0.5-1.3,1.3-2.5,2.3-3.6c2.1-2.4,4.6-4.2,7.2-5.9C48.3,9,48.5,9,48.6,9
						 M48.6,8.5c-0.2,0-0.4,0.1-0.6,0.2c-3.1,1.9-5.4,3.8-7.3,6c-1.1,1.2-1.9,2.5-2.4,3.7c-1.1,2.8-0.2,6.1,2.2,7.9
						c1,0.8,2.2,1.2,3.5,1.2c1.6,0,3.1-0.7,4.3-1.9c0.2-0.2,0.3-0.4,0.5-0.6c1.1,1.4,2.5,2.2,4.2,2.4c0.2,0,0.4,0,0.6,0
						c1.7,0,3.1-0.7,4.4-2c1-1.1,1.5-2.4,1.7-3.9c0,0,0,0,0-0.1l0-0.1l0-0.1l0-0.1l0-0.5l0-0.5l0-0.1l0-0.1c0-0.1-0.1-0.2-0.1-0.4
						c-0.1-0.3-0.1-0.6-0.2-0.9c-0.3-1.1-0.9-2.2-1.8-3.4c-1.2-1.6-2.8-3.1-4.7-4.5c-0.8-0.6-1.6-1.1-2.4-1.6
						c-0.3-0.2-0.7-0.4-1-0.7C49,8.6,48.8,8.5,48.6,8.5L48.6,8.5z"/>
				</g>
			</g>
		</g>
		<g id="YCKK1F.tif_00000120548850973772109640000008048881924593428632_">
			<g>
				<g>
					<path class="st0" d="M48.6,24.5c-0.1,0-0.3,0-0.4-0.1l-0.7-0.4c-0.5-0.4-1.1-0.7-1.6-1.1c-1.3-1-2.3-1.9-3.2-3
						c-0.6-0.8-1-1.5-1.2-2.2c-0.1-0.2-0.1-0.4-0.1-0.6l-0.1-0.3l0-0.7l0-0.1c0.1-1,0.5-1.9,1.1-2.6c0.8-0.9,1.8-1.3,2.9-1.3
						c0.1,0,0.3,0,0.4,0c1.1,0.1,2.1,0.7,2.8,1.7c0.1-0.2,0.2-0.3,0.4-0.5c0.7-0.8,1.7-1.2,2.8-1.2c0.8,0,1.6,0.3,2.3,0.8
						c1.6,1.2,2.2,3.3,1.4,5.2c-0.3,0.9-0.9,1.7-1.6,2.5c-1.3,1.4-2.8,2.7-4.9,4C48.9,24.5,48.7,24.5,48.6,24.5z"/>
					<path class="st1" d="M51.8,12.2c0.7,0,1.5,0.2,2.1,0.7c1.4,1,2.1,3,1.3,4.9c-0.4,0.9-0.9,1.7-1.5,2.4c-1.4,1.6-3.1,2.8-4.9,3.9
						c-0.1,0-0.2,0.1-0.2,0.1c-0.1,0-0.2,0-0.2-0.1c-0.8-0.5-1.5-1-2.3-1.5c-1.2-0.9-2.2-1.8-3.1-3c-0.5-0.7-0.9-1.4-1.2-2.2
						c-0.1-0.3-0.1-0.5-0.2-0.8c0-0.2,0-0.4,0-0.7c0,0,0-0.1,0-0.1c0.1-0.9,0.4-1.7,1-2.4c0.7-0.8,1.6-1.3,2.7-1.3
						c0.1,0,0.2,0,0.4,0c1.2,0.1,2.1,0.7,2.7,1.7c0,0,0.1,0.1,0.1,0.1c0.2-0.2,0.4-0.5,0.6-0.7C49.9,12.6,50.8,12.2,51.8,12.2
						 M51.8,11.7c-1.1,0-2.2,0.5-3,1.3c-0.1,0.1-0.1,0.2-0.2,0.2c-0.7-0.9-1.7-1.4-2.8-1.5c-0.1,0-0.3,0-0.4,0c-1.2,0-2.2,0.5-3,1.4
						c-0.7,0.7-1.1,1.7-1.2,2.7l0,0l0,0.1l0,0.1l0,0.1l0,0.7l0,0.1l0,0.1c0,0.1,0,0.2,0,0.2c0,0.2,0.1,0.4,0.1,0.6
						c0.2,0.8,0.6,1.5,1.3,2.3c0.8,1.1,1.9,2.1,3.2,3.1c0.5,0.4,1.1,0.8,1.6,1.1c0.2,0.1,0.5,0.3,0.7,0.4c0.2,0.1,0.3,0.2,0.5,0.2
						c0.2,0,0.3-0.1,0.5-0.1c2.1-1.3,3.7-2.6,5-4c0.8-0.8,1.3-1.7,1.6-2.6c0.8-2,0.1-4.3-1.5-5.5C53.5,12,52.6,11.7,51.8,11.7
						L51.8,11.7z"/>
				</g>
			</g>
		</g>
		<g id="YCKK1F.tif_00000123415922637272885830000012662583199591221647_">
			<g>
				<g>
					<path class="st2" d="M48.5,17.6l-0.1-0.1l-0.2-0.2c-0.2-0.1-0.4-0.2-0.5-0.4c-0.4-0.3-0.8-0.7-1.1-1c-0.2-0.3-0.3-0.5-0.4-0.8
						c0-0.1,0-0.1,0-0.2l0-0.1l0-0.2c0-0.4,0.2-0.7,0.4-1c0.3-0.3,0.7-0.5,1.1-0.5c0,0,0.1,0,0.1,0c0.4,0,0.7,0.2,0.9,0.4
						c0,0,0,0,0,0c0.3-0.3,0.6-0.5,1-0.5c0.3,0,0.6,0.1,0.9,0.3c0.6,0.4,0.8,1.2,0.5,1.9c-0.1,0.3-0.3,0.6-0.6,0.9
						c-0.4,0.5-1,0.9-1.6,1.3l-0.1,0L48.5,17.6L48.5,17.6z"/>
					<path class="st1" d="M49.6,13.4c0.2,0,0.5,0.1,0.7,0.2c0.5,0.3,0.7,1,0.4,1.6c-0.1,0.3-0.3,0.6-0.5,0.8c-0.5,0.5-1,0.9-1.6,1.3
						c0,0-0.1,0-0.1,0c0,0-0.1,0-0.1,0c-0.2-0.2-0.5-0.3-0.7-0.5c-0.4-0.3-0.7-0.6-1-1c-0.2-0.2-0.3-0.4-0.4-0.7
						c0-0.1,0-0.2-0.1-0.3c0-0.1,0-0.1,0-0.2c0,0,0,0,0,0c0-0.3,0.1-0.6,0.3-0.8c0.2-0.3,0.5-0.4,0.9-0.4c0,0,0.1,0,0.1,0
						c0.4,0,0.7,0.2,0.9,0.6c0,0,0,0,0,0c0.1-0.1,0.1-0.2,0.2-0.2C49,13.5,49.3,13.4,49.6,13.4 M49.6,12.9c-0.4,0-0.7,0.1-1,0.4
						c-0.3-0.2-0.6-0.3-0.9-0.4c-0.1,0-0.1,0-0.2,0c-0.5,0-0.9,0.2-1.3,0.6c-0.3,0.3-0.4,0.7-0.5,1.1l0,0.1l0,0l0,0.1l0,0.1l0,0.1
						l0,0.1l0,0.1c0,0.1,0,0.2,0.1,0.2c0.1,0.3,0.2,0.6,0.5,0.9c0.3,0.4,0.7,0.7,1.1,1.1c0.2,0.1,0.4,0.3,0.5,0.4l0.2,0.1
						c0.1,0.1,0.2,0.1,0.4,0.1c0.1,0,0.2,0,0.3-0.1c0.7-0.4,1.3-0.9,1.7-1.4c0.3-0.3,0.5-0.6,0.6-0.9c0.3-0.8,0.1-1.7-0.6-2.2
						C50.3,13,50,12.9,49.6,12.9L49.6,12.9z"/>
				</g>
			</g>
		</g>
		<g>
			<path class="st2" d="M31.2,96.3c-1.8,0-3.3-1.5-3.3-3.3c0-0.9,0.3-1.7,1-2.4c0.6-0.6,1.5-1,2.4-1l1.8,0c0-0.6,0.3-1.2,0.7-1.7
				c0.5-0.5,1.1-0.7,1.7-0.7l5.9,0c1.4,0,2.5,1.1,2.5,2.4c0,0.4-0.1,0.8-0.3,1.2c0.5,0.6,0.8,1.3,0.8,2.1c0,1.8-1.5,3.3-3.3,3.4
				L31.2,96.3z"/>
			<path class="st1" d="M41.3,87.4c1.2,0,2.2,1,2.2,2.2c0,0.5-0.1,0.9-0.4,1.2c0.5,0.6,0.8,1.3,0.8,2.1v0c0,1.7-1.4,3.1-3.1,3.1
				l-9.6,0c0,0,0,0,0,0c-1.7,0-3.1-1.4-3.1-3.1v0c0-1.7,1.4-3.1,3.1-3.1l2,0c0-0.1,0-0.1,0-0.2c0-1.2,1-2.2,2.2-2.2L41.3,87.4
				C41.3,87.4,41.3,87.4,41.3,87.4 M41.3,86.9L41.3,86.9L41.3,86.9l-5.9,0c-0.7,0-1.4,0.3-1.9,0.8c-0.4,0.4-0.7,1-0.8,1.6l-1.5,0
				c-2,0-3.6,1.6-3.6,3.6c0,2,1.6,3.6,3.6,3.6l9.6,0c2,0,3.6-1.6,3.6-3.6c0-0.8-0.3-1.5-0.7-2.1c0.2-0.4,0.3-0.8,0.3-1.2
				C44,88.1,42.8,86.9,41.3,86.9L41.3,86.9z"/>
		</g>
		<g>
			<path class="st2" d="M56.8,96.2c-1.8,0-3.3-1.5-3.3-3.3c0-0.8,0.3-1.5,0.8-2.1c-0.2-0.4-0.3-0.8-0.3-1.2c0-1.4,1.1-2.5,2.4-2.5
				l5.9,0c1.3,0,2.4,1.1,2.5,2.4l1.8,0c1.9,0,3.4,1.5,3.4,3.3c0,0.9-0.3,1.7-1,2.4s-1.5,1-2.4,1L56.8,96.2z"/>
			<path class="st1" d="M62.2,87.3c1.2,0,2.2,1,2.2,2.2c0,0.1,0,0.1,0,0.2l2,0c0,0,0,0,0,0c1.7,0,3.1,1.4,3.1,3.1v0
				c0,1.7-1.4,3.1-3.1,3.1l-9.6,0c0,0,0,0,0,0c-1.7,0-3.1-1.4-3.1-3.1v0c0-0.8,0.3-1.5,0.8-2.1c-0.2-0.3-0.4-0.8-0.4-1.2
				c0-1.2,1-2.2,2.2-2.2L62.2,87.3C62.2,87.3,62.2,87.3,62.2,87.3 M62.2,86.8L62.2,86.8L62.2,86.8l-5.9,0c-0.7,0-1.4,0.3-1.9,0.8
				c-0.5,0.5-0.8,1.2-0.8,1.9c0,0.4,0.1,0.8,0.3,1.2c-0.5,0.6-0.7,1.4-0.7,2.2c0,2,1.6,3.6,3.6,3.6l9.6,0c1,0,1.9-0.4,2.5-1.1
				s1.1-1.6,1-2.5c0-2-1.6-3.6-3.6-3.6l-1.5,0C64.7,87.9,63.6,86.8,62.2,86.8L62.2,86.8z"/>
		</g>
	</g>
	<g>
		<path class="st2" d="M23.1,53.4c-0.6,0-1.2-0.3-1.6-0.7l-6.6-7.2c-0.3-0.4-0.5-0.8-0.6-1.3c-0.1-0.7,0.1-1.4,0.7-1.9l7.2-6.6
			c0.4-0.4,0.9-0.6,1.5-0.6c0.6,0,1.2,0.3,1.6,0.7c0.4,0.4,0.6,1,0.6,1.6s-0.3,1.1-0.7,1.5l-5.7,5.2l5.2,5.7c0.4,0.4,0.6,1,0.6,1.6
			c0,0.6-0.3,1.1-0.7,1.5C24.1,53.2,23.6,53.4,23.1,53.4C23.1,53.4,23.1,53.4,23.1,53.4z"/>
		<path class="st1" d="M23.6,35.4c0.5,0,1,0.2,1.4,0.6c0.7,0.8,0.7,2-0.1,2.7l-5.8,5.4l5.4,5.9c0.7,0.8,0.7,2-0.1,2.7
			c-0.4,0.3-0.8,0.5-1.3,0.5c-0.5,0-1-0.2-1.4-0.6l-6.6-7.2c-0.3-0.3-0.5-0.7-0.5-1.2c-0.1-0.6,0.1-1.3,0.6-1.7l7.2-6.6
			C22.7,35.6,23.2,35.4,23.6,35.4 M23.6,34.9c-0.6,0-1.2,0.2-1.6,0.6l-7.2,6.6c-0.6,0.5-0.9,1.4-0.7,2.2c0,0.6,0.3,1.1,0.6,1.4
			l6.6,7.2c0.5,0.5,1.1,0.8,1.8,0.8c0.6,0,1.2-0.2,1.6-0.6c1-0.9,1-2.4,0.1-3.4l-5-5.5l5.5-5c1-0.9,1-2.4,0.1-3.4
			C24.9,35.2,24.3,34.9,23.6,34.9L23.6,34.9z"/>
	</g>
	<g>
		<path class="st2" d="M74.6,52.6c-0.6,0-1.1-0.2-1.5-0.7c-0.8-0.8-0.7-2.2,0.1-2.9l5.4-4.9l-5-5.4c-0.4-0.4-0.6-0.9-0.5-1.5
			c0-0.6,0.3-1.1,0.7-1.4c0.4-0.4,0.9-0.5,1.4-0.5c0.6,0,1.1,0.2,1.5,0.7l6.3,6.8c0.3,0.3,0.5,0.8,0.5,1.3c0.1,0.7-0.1,1.4-0.6,1.9
			L76,52.1C75.6,52.4,75.2,52.6,74.6,52.6L74.6,52.6z"/>
		<path class="st1" d="M75.2,35.4c0.5,0,1,0.2,1.3,0.6l6.3,6.8c0.3,0.3,0.4,0.7,0.5,1.1c0.1,0.6-0.1,1.2-0.6,1.7l-6.8,6.3
			c-0.3,0.3-0.8,0.5-1.2,0.5c-0.5,0-1-0.2-1.3-0.6c-0.7-0.7-0.6-1.9,0.1-2.6l5.6-5.1l-5.1-5.6c-0.7-0.7-0.6-1.9,0.1-2.6
			C74.3,35.6,74.7,35.4,75.2,35.4 M75.2,34.9c-0.6,0-1.1,0.2-1.6,0.6c-0.5,0.4-0.7,1-0.7,1.6c0,0.6,0.2,1.2,0.6,1.7l4.8,5.2
			l-5.2,4.8c-0.9,0.9-1,2.3-0.1,3.3c0.4,0.5,1.1,0.8,1.7,0.8c0.6,0,1.1-0.2,1.6-0.6L83,46c0.6-0.5,0.8-1.3,0.7-2.1
			c0-0.5-0.2-1-0.6-1.4l-6.3-6.8C76.4,35.2,75.8,34.9,75.2,34.9L75.2,34.9z"/>
	</g>
</g>
</svg>
