<?xml version="1.0" encoding="UTF-8"?>
<svg id="_레이어_1" data-name="레이어 1" xmlns="http://www.w3.org/2000/svg" xmlns:xlink="http://www.w3.org/1999/xlink" viewBox="0 0 612 408">
  <defs>
    <style>
      .cls-1, .cls-2 {
        fill: none;
      }

      .cls-2 {
        stroke: #d4d2c9;
      }

      .cls-2, .cls-3, .cls-4 {
        stroke-miterlimit: 10;
        stroke-width: 3px;
      }

      .cls-5, .cls-3 {
        fill: #6b6b67;
      }

      .cls-6 {
        fill: #bdbdb6;
      }

      .cls-7 {
        fill: #c4c2bb;
      }

      .cls-8 {
        fill: #c4c3bb;
      }

      .cls-9 {
        fill: url(#_무제_그라디언트_22-2);
      }

      .cls-10 {
        fill: url(#_무제_그라디언트_22);
      }

      .cls-3, .cls-4 {
        stroke: #e0ded6;
      }

      .cls-4 {
        fill: #f7f4ec;
      }
    </style>
    <linearGradient id="_무제_그라디언트_22" data-name="무제 그라디언트 22" x1="0" y1="204" x2="306" y2="204" gradientUnits="userSpaceOnUse">
      <stop offset="0" stop-color="#fff"/>
      <stop offset="1" stop-color="#e4e2db"/>
    </linearGradient>
    <linearGradient id="_무제_그라디언트_22-2" data-name="무제 그라디언트 22" x1="306" x2="612" xlink:href="#_무제_그라디언트_22"/>
  </defs>
  <rect class="cls-10" width="306" height="408"/>
  <rect class="cls-9" x="306" width="306" height="408"/>
  <rect class="cls-7" x="459.12" y="38.11" width="101.38" height="101.38" rx="14.94" ry="14.94" transform="translate(77.08 -194.99) rotate(23.38)"/>
  <line class="cls-2" x1="306" x2="306" y2="408"/>
  <rect class="cls-4" x="457.95" y="28.11" width="101.38" height="101.38" rx="14.94" ry="14.94" transform="translate(73.01 -195.35) rotate(23.38)"/>
  <ellipse class="cls-8" cx="508.64" cy="76.66" rx="38.97" ry="37.49"/>
  <circle class="cls-3" cx="507" cy="72.97" r="33.8"/>
  <line class="cls-1" x1="472.97" y1="259.2" x2="472.97" y2="259.2"/>
  <rect class="cls-6" x="561.82" y="107.36" width="32.86" height="202.93" transform="translate(285.74 -331.93) rotate(41.73)"/>
  <g id="YExaE8.tif">
    <g>
      <path class="cls-5" d="M632.97,122.06c1.41-1.12,2.55-2.03,3.75-2.98,7.94,7.09,16.02,14.3,24.24,21.64-17.73,19.87-35.36,39.64-53.06,59.48-8.11-7.24-16.19-14.46-24.51-21.88,14.22-15.95,28.32-31.78,42.49-47.67-5.05-2.01-9.78-1.66-14.25,.75-1.77,.96-3.36,2.42-4.73,3.93-5.79,6.33-11.47,12.75-17.18,19.15-4.34,4.86-8.66,9.73-12.99,14.6-3.18,3.58-6.3,7.21-9.57,10.71-1.96,2.1-5.22,1.96-7.34-.08-1.64-1.58-1.69-5.3-.07-7.1,4.8-5.35,9.62-10.69,14.41-16.05,5.59-6.25,11.15-12.53,16.77-18.76,4.05-4.49,7.99-9.1,12.35-13.26,2.05-1.95,4.85-3.35,7.56-4.3,6.98-2.45,13.93-2.07,20.62,1.34,.62,.32,1.34,.44,1.51,.5Z"/>
      <path class="cls-5" d="M530.08,287.51c-8.3-7.4-16.38-14.6-24.55-21.89,17.72-19.87,35.3-39.59,53.01-59.45,8.11,7.24,16.22,14.47,24.47,21.83-1.7,2-3.24,3.89-4.87,5.71-5.16,5.74-10.37,11.43-15.53,17.17-4.45,4.94-8.85,9.92-13.28,14.88-4.42,4.96-8.85,9.91-13.26,14.88-1.98,2.23-3.92,4.5-5.98,6.87Z"/>
      <path class="cls-5" d="M590.2,220.11c-8.26-7.37-16.32-14.56-24.53-21.88,3.59-4.06,7.05-7.96,10.59-11.97,8.25,7.36,16.35,14.59,24.53,21.88-3.61,4.07-7.03,7.94-10.59,11.96Z"/>
      <path class="cls-5" d="M499.86,274.89c7.17,6.39,14.29,12.74,21.61,19.26-9.55,5.89-20.39,8.19-30.82,12.93,3.28-11.03,4.6-21.92,9.21-32.19Z"/>
    </g>
  </g>
</svg>