<?xml version="1.0" encoding="utf-8"?>
<!-- Generator: Adobe Illustrator 27.0.0, SVG Export Plug-In . SVG Version: 6.00 Build 0)  -->
<svg version="1.1" id="Ebene_1" xmlns="http://www.w3.org/2000/svg" xmlns:xlink="http://www.w3.org/1999/xlink" x="0px" y="0px"
	 viewBox="0 0 118.2 118.2" style="enable-background:new 0 0 118.2 118.2;" xml:space="preserve">
<style type="text/css">
	.st0{opacity:0.1;fill:none;stroke:#C3CDD3;stroke-miterlimit:10;}
	.st1{opacity:0.1;fill:#FFFFFF;}
	.st2{fill:#FF364F;}
	.st3{fill:#FFFF00;}
</style>
<circle class="st0" cx="60.1" cy="59.1" r="43.7"/>
<circle class="st0" cx="60.1" cy="59.1" r="31.2"/>
<circle class="st0" cx="60.1" cy="59.1" r="18.7"/>
<circle class="st1" cx="60.1" cy="59.1" r="6.2"/>
<path class="st2" d="M100.4,27.9L100.4,27.9c0,4.1-3.4,7.5-7.5,7.5h0c-4.1,0-7.5-3.4-7.5-7.5v0c0-4.1,3.4-7.5,7.5-7.5h0
	C97,20.3,100.4,23.7,100.4,27.9z"/>
<path class="st3" d="M36.7,90.3L36.7,90.3c0,4.3-3.5,7.8-7.8,7.8h0c-4.3,0-7.8-3.5-7.8-7.8v0c0-4.3,3.5-7.8,7.8-7.8h0
	C33.2,82.6,36.7,86.1,36.7,90.3z"/>
</svg>
