<?xml version="1.0" encoding="utf-8"?>
<!-- Generator: Adobe Illustrator 27.0.0, SVG Export Plug-In . SVG Version: 6.00 Build 0)  -->
<svg version="1.1" id="Ebene_1" xmlns="http://www.w3.org/2000/svg" xmlns:xlink="http://www.w3.org/1999/xlink" x="0px" y="0px"
	 viewBox="0 0 120 120" style="enable-background:new 0 0 120 120;" xml:space="preserve">
<style type="text/css">
	.st0{opacity:0.4;fill:none;stroke:#C3CDD3;stroke-miterlimit:10;}
	.st1{opacity:0.4;fill:#FFFFFF;}
	.st2{fill:#0000FF;}
	.st3{fill:#00FF00;}
</style>
<circle class="st0" cx="60" cy="60" r="43.7"/>
<circle class="st0" cx="60" cy="60" r="31.2"/>
<circle class="st0" cx="60" cy="60" r="18.7"/>
<circle class="st1" cx="60" cy="60" r="6.2"/>
<path class="st2" d="M91.2,100.2L91.2,100.2c-4.1,0-7.5-3.4-7.5-7.5v0c0-4.1,3.4-7.5,7.5-7.5h0c4.1,0,7.5,3.4,7.5,7.5v0
	C98.8,96.8,95.4,100.2,91.2,100.2z"/>
<path class="st3" d="M28.8,36.5L28.8,36.5c-4.3,0-7.8-3.5-7.8-7.8v0c0-4.3,3.5-7.8,7.8-7.8h0c4.3,0,7.8,3.5,7.8,7.8v0
	C36.5,33,33,36.5,28.8,36.5z"/>
</svg>
