<?xml version="1.0" encoding="utf-8"?>
<!-- Generator: Adobe Illustrator 27.0.0, SVG Export Plug-In . SVG Version: 6.00 Build 0)  -->
<svg version="1.1" id="Ebene_1" xmlns="http://www.w3.org/2000/svg" xmlns:xlink="http://www.w3.org/1999/xlink" x="0px" y="0px"
	 viewBox="0 0 125 125" style="enable-background:new 0 0 125 125;" xml:space="preserve">
<style type="text/css">
	.st0{fill:#FF4448;}
</style>
<g id="YCKK1F.tif_00000048466643463303304540000004459332692288891296_">
	<g>
		<g>
			<path class="st0" d="M77.9,93.8c0-0.5,0-1,0-1.5c0-0.1,0-0.2,0.1-0.3c0.2-2.2,1-4.1,2.5-5.7c1.9-2.1,4.3-3.2,7.2-2.9
				c2.8,0.3,4.9,1.7,6.5,4c0.1,0.1,0.1,0.2,0.2,0.3c0.5-0.6,0.9-1.2,1.4-1.7c3-3.2,7.7-3.6,11.3-1c3.3,2.4,4.9,7.2,3.2,11.6
				c-0.8,2.1-2.1,4-3.6,5.7c-3.3,3.7-7.2,6.7-11.5,9.3c-0.4,0.2-0.8,0.2-1.1,0c-1.8-1.2-3.6-2.4-5.4-3.6c-2.8-2-5.3-4.3-7.4-7
				c-1.2-1.5-2.2-3.2-2.8-5.1C78.1,95.1,78,94.4,77.9,93.8z"/>
		</g>
	</g>
</g>
</svg>
