<?xml version="1.0" encoding="utf-8"?>
<!-- Generator: Adobe Illustrator 27.0.0, SVG Export Plug-In . SVG Version: 6.00 Build 0)  -->
<svg version="1.1" id="Ebene_1" xmlns="http://www.w3.org/2000/svg" xmlns:xlink="http://www.w3.org/1999/xlink" x="0px" y="0px"
	 viewBox="0 0 132.7 132.7" style="enable-background:new 0 0 132.7 132.7;" xml:space="preserve">
<style type="text/css">
	.st0{fill:#FF9CFF;}
</style>
<path class="st0" d="M69.6,72.4H39.3c-6.6,0-12-5.4-12-12l0,0c0-6.6,5.4-12,12-12h30.3c6.6,0,12,5.4,12,12l0,0
	C81.6,67,76.2,72.4,69.6,72.4z"/>
<path class="st0" d="M89.5,92.7H59.2c-6.6,0-12-5.4-12-12l0,0c0-6.6,5.4-12,12-12h30.3c6.6,0,12,5.4,12,12l0,0
	C101.5,87.3,96.1,92.7,89.5,92.7z"/>
</svg>
