<?xml version="1.0" encoding="utf-8"?>
<!-- Generator: Adobe Illustrator 27.0.0, SVG Export Plug-In . SVG Version: 6.00 Build 0)  -->
<svg version="1.1" id="레이어_1" xmlns="http://www.w3.org/2000/svg" xmlns:xlink="http://www.w3.org/1999/xlink" x="0px"
	 y="0px" viewBox="0 0 277.2 307.7" style="enable-background:new 0 0 277.2 307.7;" xml:space="preserve">
<path d="M184.9,156.1c-0.1-16-6.8-28.4-20.2-37.1c-5.9-3.8-8.9-9.1-8.8-16.1c0-4.2,0-8.4,0-12.6c0-1-0.1-1.9-0.4-2.5
	c3.1-0.2,5.8-1.8,6.9-4.7c2-5.7,2.3-11.7-0.6-17.3c-1-1.9-3.4-3.1-5.3-4.5c-0.5-0.4-1.1-0.5-1.7-0.7c-10.9,0-21.8,0-32.7,0
	c-4.5,1.5-8,4.2-8.5,9.3c-0.3,3.2-0.3,6.6,0.1,9.8c0.5,4.1,3.7,7.3,7.7,8c-0.3,0.7-0.4,1.6-0.4,2.7c0,4.2,0,8.4,0,12.6
	c0,7-3,12.3-8.8,16.1c-11.4,7.4-18.1,17.8-19.9,31.3c-0.1,0.4-0.2,0.8-0.3,1.2c0,33,0,66.1,0,99.1c0.9,3.5,2.1,6.9,4.7,9.7
	c3.5,3.7,7.7,5.8,12.8,5.8c19.3,0.1,38.7,0.1,58,0c9.9-0.1,17.5-8.1,17.5-18.2c0.1-18.8,0-37.5,0-56.3
	C184.9,179.8,184.9,167.9,184.9,156.1z"/>
</svg>
