<?xml version="1.0" encoding="utf-8"?>
<!-- Generator: Adobe Illustrator 27.0.0, SVG Export Plug-In . SVG Version: 6.00 Build 0)  -->
<svg version="1.1" id="레이어_1" xmlns="http://www.w3.org/2000/svg" xmlns:xlink="http://www.w3.org/1999/xlink" x="0px"
	 y="0px" viewBox="0 0 549.3 616.3" style="enable-background:new 0 0 549.3 616.3;" xml:space="preserve">
<style type="text/css">
	.st0{fill:#0E1219;}
</style>
<path class="st0" d="M408.3,322.3c2.4-3.4,3.8-7.3,3.9-11.5c0.1-2.2-0.3-4.3-2.5-5.6c-10.4-6.1-20.8-12.2-31.7-17.3
	c-21.6-10.1-44.2-16.3-67.8-19.2c-1.8-0.2-4.1,0.1-5.2-1c-1.2-1.1,0.6-3.2,0.8-5c0-0.9,0.4-1.9,0.4-2.8c0.4-3.7-0.1-7-2.8-9.8
	c-1.8-1.9-4-3.1-6.2-4.9c3.8-2.5,5.3-6.6,7.2-10.5c0.8,0.7,0.5,1.9,1.3,2c1.1,0.1,1.2-1.1,1.7-1.7c1.5-2.6,1.8-5.5,1.7-8.6
	c-0.2-6.8-3.1-12.8-7-18c-4.4-6-9.1-11.8-14.3-17.1c-9-9.5-15.2-20.8-20.8-32.6c-5.1-10.8-12.8-18.6-24.5-22.1
	c-2.9-0.8-5.8-1.1-8.7-1.8c2.3-1.1,4.5-2,6.4-3.6c2.4-2.1,1.6-4.8-0.5-7.6c-1.6-2.1-4.1-2.2-6.3-0.3c-2.6,2.4-5.3,4.9-7.3,7.9
	c-1.2,1.8-2.3,1.8-4.1,1c-1.7-0.8-1.6-2.2-1.8-3.5c-0.8-5.9-4.2-8.4-9.9-7c-2.4,0.5-3.2,1.8-2.5,4.2c0.5,1.8,1.5,3.5,2.5,5.1
	c0.8,1.3,0.4,2.3-0.5,3.3c-0.9,1.1-1.8,0.7-2.8,0.2c-1.8-0.9-3.6-1.2-5.8-0.8c-9.2,2.2-14,11.7-15.2,19.8c-1.1,6.6,2,12.4,3.6,18.7
	c0.4,1.7,0.5,3.6,1.3,5c1.4,2.6,1.6,5,0.7,7.6c-1.8,5.1-2.2,10.2,0.7,15.2c0.5,1,0,1.3-0.5,1.9c-1.7,2.2-3.5,4.5-5.1,6.8
	c-5.1,7.3-5.7,15-3.1,23.3c4.2,3.2,3.1,8.3,4.3,12.6c2.6,9.4,8.8,16,18.4,17.6c5.5,1,7,4.1,8.3,8.4c0.3,1.1,0.7,2,1.1,3
	c0.7,2.3,0.6,4.3-0.6,6.5c-4.5,8.6-9.1,17.3-13.2,26.1c-1.7,3.6-4.4,5.3-8.1,5.3c-5.1,0.1-9.8,0.5-14.6,2.8c-4.7,2.1-8.7,4.6-11,9.3
	c-0.4,1-1.4,2.2-0.8,2.7c1,0.8,2.3,0.9,3.7,0.2c1.4-0.7,2.3-2.4,4.1-2.6c-0.7,2.6-1.4,5-2.1,7.5c-0.1,0.6-0.3,1.2,0.2,1.6
	c0.4,0.3,0.9,0.3,1.3-0.2c1.9-1.9,4.7-2.7,6.3-5.2c2-3.4,4.8-5.1,9.3-4.1c4.7,1,9.7,0.1,13.4-3.4c6.9-6.6,13.5-13.4,19.9-20.5
	c5.3-5.8,11.8-10.7,14-18.9c2.9,2.8,2.9,3.3,0.3,6c-3,3-5.9,6-8.5,9.2c-15.8,19.4-28.8,40.6-39.8,63.1c-2.4,5.1-4.7,10.5-6.1,16
	c-0.6,2.3-0.2,3.2,2.3,3.2c2.2,0,4.5,0.2,6.7,1.5c-3.2,5-5.9,10.2-8.2,15.6c-2.3,5.4-4.2,10.8-4.9,16.7c-0.3,2,0.2,3.4,2.3,4.2
	c5.4,2.1,10.6,4.8,16.1,6.8c13.1,4.8,26.5,8.7,40.2,11.1c-0.3,11.1,0.9,22.5,8.9,30.6c11.8,11.9,29.4,9.6,43,2.5
	c3.3-1.7,6.3-3.7,9.3-5.9c3.9,2.5,8.6,3.5,13.5,3.2c10,0.6,20.4-4.8,28.2-11.5c7.8-6.7,14.8-14.3,22.4-21.2
	c6.8-6.2,13.8-12.2,20.9-17.9c1.6-1.1,3.3-2.1,5-3.2c13.2-2.6,29.5-7.4,33.8-20.5c0.6-1.9-0.9-3.6-2.6-4.2
	c-10.8-3.8-22.2-5-33.4-3.8c-1.3-0.1-2.5-0.1-3.8,0c3.1-3.5,6.1-7.2,9-11c7.9-10.5,14.9-21.5,19.8-33.7c2.8-7.1,2.8-7.2-3.1-11.5
	C407.7,324.5,407.1,323.9,408.3,322.3z"/>
</svg>
