<?xml version="1.0" encoding="utf-8"?>
<!-- Generator: Adobe Illustrator 27.0.0, SVG Export Plug-In . SVG Version: 6.00 Build 0)  -->
<svg version="1.1" id="레이어_1" xmlns="http://www.w3.org/2000/svg" xmlns:xlink="http://www.w3.org/1999/xlink" x="0px"
	 y="0px" viewBox="0 0 386.4 433.8" style="enable-background:new 0 0 386.4 433.8;" xml:space="preserve">
<g>
	<path d="M133.6,168.9v15.7H91v9.6h37.3V210H91v9.7h43.7v17.3H76.2v-68.2H133.6z"/>
	<path d="M198.1,165.3l25.3,68.2h-17.1l-4.4-13.1h-27.1l-4.5,13.1h-15.8l24.7-68.2H198.1z M188.5,181.5l-8.1,23.8h16L188.5,181.5z"
		/>
	<path d="M302.3,168.9V186h-21.4v51.1h-14.7V186h-21.3v-17.1H302.3z"/>
	<path d="M163.8,256.4v68.3h-14.9v-54.9l-17.8,54.8h-13.9l-16.5-54.8v54.9H85.8v-68.3h26.4l12.7,43.7l13.6-43.7H163.8z"/>
	<path d="M273,253v15.7h-42.7v9.6h37.3v15.8h-37.3v9.7h43.7v17.3h-58.5V253H273z"/>
</g>
</svg>
