<?xml version="1.0" encoding="utf-8"?>
<!-- Generator: Adobe Illustrator 27.0.0, SVG Export Plug-In . SVG Version: 6.00 Build 0)  -->
<svg version="1.1" id="레이어_1" xmlns="http://www.w3.org/2000/svg" xmlns:xlink="http://www.w3.org/1999/xlink" x="0px"
	 y="0px" viewBox="0 0 511 455.6" style="enable-background:new 0 0 511 455.6;" xml:space="preserve">
<path d="M391,205.8H124.9c-9,0-16.3,7.3-16.3,16.3c0,9,7.3,16.3,16.3,16.3h125.3v96.6h-28.7c-4.1,0-7.5,3.4-7.5,7.5v4
	c0,4.1,3.4,7.5,7.5,7.5h73.2c4.1,0,7.5-3.4,7.5-7.5v-4c0-4.1-3.4-7.5-7.5-7.5h-28.7v-96.6H391c9,0,16.3-7.3,16.3-16.3
	C407.4,213.2,400,205.8,391,205.8z"/>
</svg>
