<?xml version="1.0" encoding="utf-8"?>
<!-- Generator: Adobe Illustrator 27.0.0, SVG Export Plug-In . SVG Version: 6.00 Build 0)  -->
<svg version="1.1" id="레이어_1" xmlns="http://www.w3.org/2000/svg" xmlns:xlink="http://www.w3.org/1999/xlink" x="0px"
	 y="0px" viewBox="0 0 306 422.2" style="enable-background:new 0 0 306 422.2;" xml:space="preserve">
<g>
	<path d="M241.4,86.5c4.8,0,8.8,3.9,8.8,8.7l1.1,223.4c0,4.9-3.9,8.8-8.7,8.8l-174,0.8c0,0,0,0,0,0c-4.8,0-8.8-3.9-8.8-8.7
		L58.7,96.2c0-4.9,3.9-8.8,8.7-8.8L241.4,86.5C241.4,86.5,241.4,86.5,241.4,86.5 M241.4,82.5L241.4,82.5L241.4,82.5l-174,0.8
		c-7.1,0-12.8,5.8-12.7,12.8l1.1,223.4c0,7,5.8,12.7,12.8,12.7h0l0.1,0l174-0.8c7.1,0,12.8-5.8,12.7-12.8l-1.1-223.4
		C254.2,88.2,248.5,82.5,241.4,82.5L241.4,82.5z"/>
</g>
<g>
	<path d="M106.6,74c2.4,0,4.3,1.9,4.3,4.3c0,2.4-1.9,4.3-4.3,4.3l-53.5,0.2c0,0,0,0,0,0c-2.4,0-4.3-1.9-4.3-4.3v0
		c0-2.4,1.9-4.3,4.3-4.3L106.6,74C106.6,74,106.6,74,106.6,74 M106.6,70L106.6,70L106.6,70L53,70.2c-4.6,0-8.3,3.8-8.3,8.3
		c0,4.6,3.7,8.3,8.3,8.3l53.6-0.2c4.6,0,8.3-3.8,8.3-8.3C114.9,73.7,111.1,70,106.6,70L106.6,70z"/>
</g>
<g>
	<path d="M257.6,71.4c2.4,0,4.3,1.9,4.3,4.3v0c0,2.4-1.9,4.3-4.3,4.3L204,80.2c0,0,0,0,0,0c-2.4,0-4.3-1.9-4.3-4.3v0
		c0-2.4,1.9-4.3,4.3-4.3L257.6,71.4C257.6,71.4,257.6,71.4,257.6,71.4 M257.6,67.4L257.6,67.4L257.6,67.4L204,67.6
		c-4.6,0-8.3,3.8-8.3,8.3c0,4.6,3.7,8.3,8.3,8.3l53.6-0.2c2.2,0,4.3-0.9,5.9-2.5c1.6-1.6,2.4-3.7,2.4-5.9
		C265.9,71.1,262.1,67.4,257.6,67.4L257.6,67.4z"/>
</g>
<g id="YCKK1F.tif_00000048466643463303304540000004459332692288891296_">
	<g>
		<g>
			<path d="M170.7,179.4c3.5,0,7,1.1,10.1,3.4c6.5,4.8,9.8,14.3,6.3,23c-1.7,4.3-4.2,8-7.3,11.4c-6.6,7.4-14.4,13.4-22.8,18.6
				c-0.4,0.2-0.8,0.4-1.1,0.4c-0.4,0-0.8-0.1-1.2-0.4c-3.6-2.4-7.2-4.7-10.7-7.2c-5.5-4-10.5-8.6-14.7-14c-2.4-3.1-4.4-6.4-5.5-10.2
				c-0.4-1.3-0.6-2.6-0.8-3.9c0-1,0-2,0-3.1c0-0.2,0.1-0.4,0.1-0.6c0.4-4.3,2-8.2,4.9-11.4c3.4-3.8,7.6-5.9,12.6-5.9
				c0.6,0,1.1,0,1.7,0.1c5.6,0.5,9.8,3.4,12.9,8c0.1,0.2,0.3,0.4,0.4,0.6c0.9-1.2,1.8-2.3,2.7-3.4
				C161.7,181.3,166.2,179.4,170.7,179.4 M170.7,175.4c-5.7,0-11,2.3-15,6.4c-3.6-3.7-7.9-5.7-13-6.2c-0.7-0.1-1.4-0.1-2.1-0.1
				c-5.9,0-11.3,2.5-15.6,7.2c-3.4,3.8-5.3,8.3-5.9,13.6c0,0.1,0,0.2-0.1,0.3L119,197l0,0.4l0,3.1l0,0.4l0.1,0.4
				c0.1,0.4,0.2,0.8,0.2,1.1c0.2,1,0.4,2,0.7,3c1.1,3.9,3.1,7.5,6.2,11.5c4.1,5.3,9.1,10.1,15.5,14.7c2.5,1.9,5.1,3.6,7.7,5.2
				c1.1,0.7,2.1,1.4,3.2,2.1c1,0.7,2.2,1.1,3.4,1.1c1.1,0,2.2-0.3,3.2-1c10-6.2,17.5-12.3,23.7-19.3c3.7-4.1,6.3-8.2,8-12.5
				c3.9-9.9,0.7-21.5-7.6-27.7C179.5,176.9,175.2,175.4,170.7,175.4L170.7,175.4z"/>
		</g>
	</g>
</g>
<g id="YCKK1F.tif_00000132078311816723425960000016051201021197091263_">
	<g>
		<g>
			<path d="M221.7,261.6c0.1,0,0.2,0,0.3,0.1c1.1,0.7,2.2,1.4,3.2,2.2c1.6,1.2,3.1,2.6,4.4,4.2c0.7,0.9,1.3,1.9,1.6,3
				c0.1,0.4,0.2,0.8,0.3,1.1c0,0.3,0,0.6,0,0.9c0,0.1,0,0.1,0,0.2c-0.1,1.3-0.6,2.4-1.5,3.4c-1,1.1-2.3,1.8-3.8,1.8
				c-0.2,0-0.3,0-0.5,0c-1.7-0.2-2.9-1-3.9-2.4c0-0.1-0.1-0.1-0.1-0.2c-0.3,0.3-0.5,0.7-0.8,1c-1,1.1-2.3,1.6-3.7,1.6
				c-1,0-2.1-0.3-3-1c-1.9-1.4-2.9-4.3-1.9-6.9c0.5-1.3,1.3-2.4,2.2-3.4c2-2.2,4.3-4,6.8-5.5C221.5,261.6,221.6,261.6,221.7,261.6
				 M221.7,257.6c-0.9,0-1.7,0.2-2.4,0.7c-3.2,2-5.7,4-7.7,6.3c-1.3,1.5-2.3,3-2.9,4.6c-1.7,4.2-0.3,8.9,3.2,11.6
				c1.6,1.2,3.4,1.8,5.4,1.8c1.6,0,3.1-0.4,4.5-1.2c1.1,0.6,2.3,1,3.6,1.1c0.3,0,0.6,0,0.9,0c2.6,0,4.9-1.1,6.7-3.1
				c1.4-1.5,2.2-3.4,2.4-5.5l0.1-0.4l0-0.4l0-0.5l0-0.5l0-0.4l-0.1-0.4c0-0.1,0-0.2-0.1-0.3c-0.1-0.3-0.1-0.7-0.3-1.2
				c-0.4-1.5-1.2-2.9-2.3-4.4c-1.4-1.8-3.1-3.4-5.2-4.9c-0.8-0.6-1.6-1.1-2.4-1.6c-0.3-0.2-0.6-0.4-0.9-0.6
				C223.5,257.9,222.6,257.6,221.7,257.6L221.7,257.6z"/>
		</g>
	</g>
</g>
<g>
	<g>
		<path d="M90.8,104.5l8,19.6l-4.8,0l-1.5-4.4l-7.1,0l-1.5,4.4l-4.8,0l7.8-19.7L90.8,104.5 M86.3,117.2l5.3,0l-2.7-7.6L86.3,117.2
			 M93.5,100.5l-2.7,0l-3.9,0l-2.7,0l-1,2.5l-7.8,19.7l-2.2,5.5l5.9,0l4.8,0l2.8,0l0.9-2.7l0.6-1.7l1.5,0l0.6,1.7l1,2.7l2.8,0l4.8,0
			l5.9,0l-2.2-5.5l-8-19.6L93.5,100.5L93.5,100.5z"/>
	</g>
</g>
<g id="YCKK1F.tif_00000174583466324880455640000014150277704672106654_">
	<g>
		<g>
			<path d="M93.5,136c1,0,2.1,0.3,3,1c1.9,1.4,2.9,4.3,1.9,6.9c-0.5,1.3-1.3,2.4-2.2,3.4c-2,2.2-4.3,4-6.8,5.5
				c-0.1,0.1-0.2,0.1-0.3,0.1c-0.1,0-0.2,0-0.3-0.1c-1.1-0.7-2.2-1.4-3.2-2.2c-1.6-1.2-3.1-2.6-4.4-4.2c-0.7-0.9-1.3-1.9-1.6-3
				c-0.1-0.4-0.2-0.8-0.3-1.1c0-0.3,0-0.6,0-0.9c0-0.1,0-0.1,0-0.2c0.1-1.3,0.6-2.4,1.5-3.4c1-1.1,2.3-1.8,3.8-1.8
				c0.2,0,0.3,0,0.5,0c1.7,0.2,2.9,1,3.9,2.4c0,0.1,0.1,0.1,0.1,0.2c0.3-0.3,0.5-0.7,0.8-1C90.8,136.6,92.1,136,93.5,136 M93.5,132
				c-1.6,0-3.1,0.4-4.5,1.2c-1.1-0.6-2.3-1-3.6-1.1c-0.3,0-0.6,0-0.9,0c-2.6,0-4.9,1.1-6.7,3.1c-1.4,1.5-2.2,3.4-2.4,5.5l-0.1,0.4
				l0,0.4l0,0.5l0,0.5l0,0.4l0.1,0.4c0,0.1,0,0.2,0.1,0.3c0.1,0.3,0.1,0.7,0.3,1.2c0.4,1.5,1.2,2.9,2.3,4.4c1.4,1.8,3.1,3.4,5.2,4.9
				c0.8,0.6,1.6,1.1,2.4,1.6c0.3,0.2,0.6,0.4,0.9,0.6c0.8,0.5,1.7,0.8,2.6,0.8c0.9,0,1.7-0.2,2.4-0.7c3.2-2,5.7-4,7.7-6.3
				c1.3-1.5,2.3-3,2.9-4.6c1.7-4.2,0.3-8.9-3.2-11.6C97.3,132.6,95.4,132,93.5,132L93.5,132z"/>
		</g>
	</g>
</g>
<g>
	<g>
		<path d="M231.7,291l-7.8,19.7l-3.9,0l-8-19.6l4.8,0l1.5,4.4l7.1,0l1.5-4.4L231.7,291 M224.5,298l-5.3,0l2.7,7.6L224.5,298
			 M237.6,287l-5.9,0l-4.8,0l-2.8,0l-0.9,2.7l-0.6,1.7l-1.5,0l-0.6-1.7l-1-2.7l-2.8,0l-4.8,0l-5.9,0l2.2,5.5l8,19.6l1,2.5l2.7,0
			l3.9,0l2.7,0l1-2.5l7.8-19.7L237.6,287L237.6,287z"/>
	</g>
</g>
<g id="YCKK1F.tif_00000044179791736410753820000013705521875651544454_">
	<g>
		<g>
			<path d="M154.1,15.9c0.5,0,0.9,0.1,1.4,0.4c4.2,2.8,8.5,5.5,12.5,8.5c6.4,4.7,12.3,10.1,17.3,16.4c2.8,3.6,5.2,7.5,6.5,11.9
				c0.4,1.5,0.7,3,1,4.5c0,1.2,0,2.4,0,3.6c0,0.2-0.1,0.4-0.1,0.7c-0.5,5.1-2.3,9.6-5.7,13.4c-4,4.5-8.9,6.9-14.8,6.9
				c-0.7,0-1.3,0-2-0.1c-6.5-0.6-11.5-4-15.2-9.3c-0.2-0.3-0.3-0.5-0.5-0.7c-1.1,1.4-2.1,2.7-3.2,4c-3.9,4.2-9.2,6.4-14.5,6.4
				c-4.1,0-8.2-1.3-11.8-3.9c-7.6-5.6-11.5-16.7-7.4-27c2-5,5-9.4,8.5-13.3c7.7-8.7,16.9-15.7,26.8-21.8
				C153.2,16.1,153.7,15.9,154.1,15.9 M154.1,11.9c-1.2,0-2.4,0.3-3.4,1C139,20.2,130.2,27.4,123,35.5c-4.2,4.8-7.3,9.5-9.2,14.5
				c-4.5,11.3-0.8,24.6,8.8,31.7c4.2,3.1,9.1,4.7,14.2,4.7c6.6,0,12.8-2.7,17.4-7.7c0.1-0.1,0.1-0.2,0.2-0.2c4.2,4.5,9.3,7,15.4,7.6
				c0.8,0.1,1.6,0.1,2.4,0.1c6.9,0,12.9-2.8,17.8-8.3c3.8-4.3,6.1-9.5,6.7-15.6l0,0c0-0.1,0-0.2,0.1-0.3l0.1-0.4l0-0.4l0-3.6l0-0.4
				l-0.1-0.4c-0.1-0.4-0.2-0.9-0.3-1.3c-0.2-1.1-0.4-2.3-0.8-3.5c-1.3-4.5-3.6-8.7-7.2-13.2c-4.8-6.1-10.7-11.7-18.1-17.2
				c-2.9-2.2-6-4.2-9-6.1c-1.2-0.8-2.5-1.6-3.7-2.5C156.6,12.3,155.3,11.9,154.1,11.9L154.1,11.9z"/>
		</g>
	</g>
</g>
<g id="YCKK1F.tif_00000119840283894347081420000000420933138962723467_">
	<g>
		<g>
			<path d="M164.9,31.4c2.5,0,5,0.8,7.2,2.4c4.6,3.4,7,10.2,4.5,16.4c-1.2,3-3,5.7-5.2,8.1c-4.7,5.3-10.3,9.5-16.3,13.3
				c-0.3,0.2-0.5,0.3-0.8,0.3c-0.3,0-0.6-0.1-0.8-0.3c-2.5-1.7-5.2-3.3-7.6-5.2c-3.9-2.9-7.5-6.1-10.5-10c-1.7-2.2-3.1-4.6-3.9-7.2
				c-0.3-0.9-0.4-1.8-0.6-2.7c0-0.7,0-1.5,0-2.2c0-0.1,0.1-0.3,0.1-0.4c0.3-3.1,1.4-5.8,3.5-8.2c2.4-2.7,5.4-4.2,9-4.2
				c0.4,0,0.8,0,1.2,0.1c4,0.4,7,2.4,9.2,5.7c0.1,0.2,0.2,0.3,0.3,0.4c0.7-0.8,1.3-1.7,1.9-2.4C158.5,32.7,161.7,31.4,164.9,31.4
				 M164.9,27.4c-4,0-7.8,1.5-10.7,4.2c-2.6-2.3-5.7-3.7-9.2-4c-0.5,0-1.1-0.1-1.6-0.1c-4.6,0-8.7,1.9-12,5.6
				c-2.5,2.8-4,6.3-4.5,10.3c0,0.1,0,0.1,0,0.2l-0.1,0.4l0,0.4l0,2.2l0,0.4l0.1,0.4c0.1,0.3,0.1,0.5,0.2,0.8
				c0.1,0.7,0.3,1.5,0.5,2.2c0.9,2.9,2.3,5.6,4.6,8.6c3,3.8,6.7,7.3,11.3,10.7c1.8,1.3,3.7,2.6,5.5,3.8c0.8,0.5,1.5,1,2.3,1.5
				c0.9,0.6,2,0.9,3.1,0.9c1,0,2-0.3,2.9-0.9c7.2-4.5,12.7-8.9,17.2-14c2.7-3.1,4.6-6.1,5.9-9.3c3-7.5,0.5-16.4-5.9-21.1
				C171.6,28.5,168.3,27.4,164.9,27.4L164.9,27.4z"/>
		</g>
	</g>
</g>
<g id="YCKK1F.tif_00000125588778980467559840000016915422904930127533_">
	<g>
		<g>
			<path d="M158.1,35.7c0.9,0,1.8,0.3,2.6,0.9c1.7,1.2,2.5,3.7,1.6,6c-0.4,1.1-1.1,2.1-1.9,2.9c-1.7,1.9-3.7,3.5-5.9,4.8
				c-0.1,0.1-0.2,0.1-0.3,0.1c-0.1,0-0.2,0-0.3-0.1c-0.9-0.6-1.9-1.2-2.8-1.9c-1.4-1-2.7-2.2-3.8-3.6c-0.6-0.8-1.1-1.7-1.4-2.6
				c-0.1-0.3-0.1-0.7-0.2-1c0-0.3,0-0.5,0-0.8c0,0,0-0.1,0-0.1c0.1-1.1,0.5-2.1,1.3-3c0.9-1,2-1.5,3.3-1.5c0.1,0,0.3,0,0.4,0
				c1.4,0.1,2.5,0.9,3.3,2.1c0,0.1,0.1,0.1,0.1,0.2c0.2-0.3,0.5-0.6,0.7-0.9C155.8,36.2,156.9,35.7,158.1,35.7 M158.1,31.7
				c-1.4,0-2.7,0.3-3.9,1c-0.9-0.5-2-0.8-3.1-0.9c-0.3,0-0.5,0-0.8,0c-2.4,0-4.6,1-6.2,2.9c-1.3,1.4-2,3.1-2.2,5l-0.1,0.4l0,0.4
				l0,0.2l0,0.6l0,0.4l0.1,0.4l0,0.2c0.1,0.3,0.1,0.6,0.2,1.1c0.4,1.3,1.1,2.6,2.1,4c1.2,1.6,2.7,3,4.6,4.4c0.7,0.5,1.4,1,2.1,1.4
				c0.3,0.2,0.5,0.4,0.8,0.5c0.8,0.5,1.6,0.8,2.5,0.8c0.8,0,1.7-0.2,2.4-0.7c2.8-1.8,5-3.5,6.8-5.6c1.2-1.3,2-2.7,2.6-4.1
				c1.5-3.8,0.3-8.2-3-10.6C161.6,32.3,159.9,31.7,158.1,31.7L158.1,31.7z"/>
		</g>
	</g>
</g>
<g>
	<path d="M94,370.7c4.5,0,8.1,3.6,8.2,8.1c0,1.7-0.5,3.2-1.4,4.5c1.9,2,3.1,4.8,3.1,7.8v0c0,6.3-5.1,11.5-11.4,11.5l-35.7,0.2
		c0,0,0,0-0.1,0c-6.3,0-11.4-5.1-11.5-11.4v0c0-6.3,5.1-11.5,11.4-11.5l7.5,0c0-0.3-0.1-0.5-0.1-0.8c0-4.5,3.6-8.2,8.1-8.2L94,370.7
		C94,370.7,94,370.7,94,370.7 M94,363.7L94,363.7L94,363.7l-21.8,0.1c-4,0-7.8,1.6-10.7,4.5c-1.3,1.3-2.4,2.9-3.1,4.5l-1.8,0
		c-4.9,0-9.6,2-13,5.5c-3.5,3.5-5.4,8.2-5.4,13.1c0,10.1,8.3,18.4,18.5,18.4l0.1,0l35.7-0.2c4.9,0,9.5-2,13-5.5
		c3.5-3.5,5.4-8.2,5.4-13.1c0-3-0.8-6-2.2-8.6c0.3-1.2,0.4-2.4,0.4-3.7C109.2,370.5,102.4,363.7,94,363.7L94,363.7z"/>
</g>
<g>
	<path d="M243.9,370.2c4.5,0,8.1,3.6,8.2,8.1c0,0.3-0.1,0.5-0.1,0.8l7.5,0c0,0,0,0,0.1,0c6.3,0,11.4,5.1,11.5,11.4v0
		c0,6.3-5.1,11.5-11.4,11.5l-35.7,0.2c0,0,0,0-0.1,0c-6.3,0-11.4-5.1-11.5-11.4v0c0-3,1.1-5.7,3-7.8c-0.9-1.3-1.4-2.8-1.4-4.5
		c0-4.5,3.6-8.2,8.1-8.2L243.9,370.2C243.9,370.2,243.9,370.2,243.9,370.2 M243.9,363.2L243.9,363.2L243.9,363.2l-21.8,0.1
		c-4,0-7.8,1.6-10.7,4.5c-2.9,2.9-4.4,6.7-4.4,10.7c0,1.3,0.2,2.5,0.5,3.7c-1.4,2.6-2.1,5.6-2.1,8.6c0,10.1,8.3,18.4,18.5,18.4
		l0.1,0l35.7-0.2c10.2,0,18.4-8.4,18.4-18.6c0-10.1-8.3-18.4-18.5-18.4l-0.1,0l-1.8,0C255.3,366.8,250,363.2,243.9,363.2
		L243.9,363.2z"/>
</g>
<g>
	<path d="M85.1,332.4c1.5,0,2.7,1.2,2.7,2.7l0.1,28c0,1.5-1.2,2.7-2.7,2.7l-1.7,0c0,0,0,0,0,0c-1.5,0-2.7-1.2-2.7-2.7l-0.1-28
		c0-1.5,1.2-2.7,2.7-2.7L85.1,332.4C85.1,332.4,85.1,332.4,85.1,332.4 M85.1,328.4L85.1,328.4L85.1,328.4l-1.7,0
		c-1.8,0-3.5,0.7-4.7,2c-1.3,1.3-2,3-2,4.8l0.1,28c0,3.7,3,6.7,6.7,6.7l1.7,0c1.8,0,3.5-0.7,4.7-2c1.3-1.3,2-3,2-4.8l-0.1-28
		C91.8,331.4,88.8,328.4,85.1,328.4L85.1,328.4z"/>
</g>
<g>
	<path d="M232.6,331.8c1.5,0,2.7,1.2,2.7,2.7l0.1,28c0,1.5-1.2,2.7-2.7,2.7l-1.7,0c0,0,0,0,0,0c-1.5,0-2.7-1.2-2.7-2.7l-0.1-28
		c0-1.5,1.2-2.7,2.7-2.7L232.6,331.8C232.6,331.8,232.6,331.8,232.6,331.8 M232.6,327.8L232.6,327.8L232.6,327.8l-1.7,0
		c-1.8,0-3.5,0.7-4.7,2c-1.3,1.3-2,3-2,4.8l0.1,28c0,3.7,3,6.7,6.7,6.7l1.7,0c1.8,0,3.5-0.7,4.7-2c1.3-1.3,2-3,2-4.8l-0.1-28
		C239.3,330.8,236.3,327.8,232.6,327.8L232.6,327.8z"/>
</g>
</svg>
