<?xml version="1.0" encoding="utf-8"?>
<!-- Generator: Adobe Illustrator 27.0.0, SVG Export Plug-In . SVG Version: 6.00 Build 0)  -->
<svg version="1.1" id="레이어_1" xmlns="http://www.w3.org/2000/svg" xmlns:xlink="http://www.w3.org/1999/xlink" x="0px"
	 y="0px" viewBox="0 0 247.5 406.3" style="enable-background:new 0 0 247.5 406.3;" xml:space="preserve">
<g>
	<path d="M203.1,79c4.8,0,8.7,3.8,8.8,8.6l4.9,223.4c0.1,4.9-3.7,8.9-8.6,9l-173.9,3.8c-0.1,0-0.1,0-0.2,0c-4.8,0-8.7-3.8-8.8-8.6
		L20.4,91.8c-0.1-4.9,3.7-8.9,8.6-9L202.9,79C202.9,79,203,79,203.1,79 M203.1,75c-0.1,0-0.2,0-0.3,0L28.9,78.8
		c-7,0.2-12.7,6-12.5,13.1l4.9,223.4c0.2,6.9,5.9,12.5,12.8,12.5c0.1,0,0.2,0,0.3,0l173.9-3.8c7-0.2,12.7-6,12.5-13.1l-4.9-223.4
		C215.7,80.6,210,75,203.1,75L203.1,75z"/>
	<g id="YCKK1F.tif_00000048466643463303304540000004459332692288891296_">
		<g>
			<path d="M118.8,173.4c0.4,0,0.8,0.1,1.1,0.4c3.6,2.3,7.3,4.6,10.8,7.1c5.5,3.9,10.7,8.4,14.9,13.7c2.4,3,4.5,6.3,5.7,10.1
				c0.4,1.3,0.6,2.6,0.9,3.8c0,1,0,2,0.1,3.1c0,0.2-0.1,0.4-0.1,0.6c-0.4,4.3-1.9,8.2-4.7,11.5c-3.4,4-7.7,6.1-12.8,6.1
				c-0.5,0-0.9,0-1.4-0.1c-5.6-0.4-9.9-3.2-13.1-7.7c-0.2-0.2-0.3-0.4-0.4-0.6c-0.9,1.2-1.7,2.4-2.7,3.4c-3.4,3.7-7.9,5.6-12.5,5.6
				c-3.4,0-6.8-1-9.9-3.2c-6.6-4.7-10-14.1-6.7-22.9c1.6-4.3,4.1-8,7.1-11.5c6.5-7.6,14.2-13.6,22.5-19
				C118,173.5,118.4,173.4,118.8,173.4 M118.8,169.4L118.8,169.4c-1.2,0-2.3,0.3-3.3,1c-9.9,6.4-17.3,12.6-23.4,19.8
				c-3.6,4.2-6.1,8.3-7.8,12.7c-3.7,9.9-0.3,21.5,8.1,27.6c3.6,2.6,7.8,3.9,12.2,3.9c5.7,0,11.3-2.4,15.2-6.7c3.6,3.6,8,5.6,13.1,6
				c0.6,0,1.1,0.1,1.7,0.1c6.1,0,11.6-2.6,15.8-7.5c3.3-3.8,5.2-8.4,5.6-13.7c0-0.1,0-0.2,0.1-0.3l0.1-0.4l0-0.4l-0.1-3.1l0-0.4
				l-0.1-0.4c-0.1-0.4-0.2-0.8-0.2-1.1c-0.2-1-0.4-2-0.7-3c-1.2-3.8-3.2-7.5-6.4-11.4c-4.2-5.2-9.3-9.9-15.7-14.5
				c-2.5-1.8-5.2-3.5-7.7-5.1c-1.1-0.7-2.1-1.4-3.2-2C121,169.7,119.9,169.4,118.8,169.4L118.8,169.4z"/>
		</g>
	</g>
	<g id="YCKK1F.tif_00000132078311816723425960000016051201021197091263_">
		<g>
			<path d="M186.2,254.4c0.1,0,0.2,0,0.3,0.1c1.1,0.7,2.2,1.4,3.2,2.1c1.7,1.2,3.2,2.5,4.5,4.1c0.7,0.9,1.3,1.9,1.7,3
				c0.1,0.4,0.2,0.8,0.3,1.1c0,0.3,0,0.6,0,0.9c0,0.1,0,0.1,0,0.2c-0.1,1.3-0.6,2.4-1.4,3.4c-1,1.2-2.3,1.8-3.8,1.8
				c-0.1,0-0.3,0-0.4,0c-1.7-0.1-2.9-1-3.9-2.3c0-0.1-0.1-0.1-0.1-0.2c-0.3,0.3-0.5,0.7-0.8,1c-1,1.1-2.4,1.7-3.7,1.7
				c-1,0-2-0.3-2.9-1c-2-1.4-3-4.2-2-6.8c0.5-1.3,1.2-2.4,2.1-3.4c1.9-2.3,4.2-4.1,6.7-5.7C185.9,254.4,186.1,254.4,186.2,254.4
				 M186.2,250.4c-0.9,0-1.8,0.3-2.5,0.8c-3.2,2.1-5.6,4.1-7.6,6.4c-1.3,1.5-2.2,3-2.8,4.6c-1.6,4.2-0.2,8.9,3.4,11.5
				c1.6,1.1,3.4,1.7,5.3,1.7c1.6,0,3.2-0.5,4.6-1.3c1.1,0.6,2.3,1,3.6,1.1c0.2,0,0.5,0,0.7,0c2.7,0,5-1.1,6.8-3.2
				c1.3-1.6,2.1-3.4,2.3-5.5l0.1-0.4l0-0.4l0-0.9l0-0.4l-0.1-0.4c0-0.1,0-0.2-0.1-0.3c-0.1-0.3-0.2-0.7-0.3-1.1
				c-0.5-1.5-1.2-2.9-2.4-4.3c-1.4-1.8-3.1-3.3-5.3-4.8c-0.8-0.6-1.6-1.1-2.4-1.6c-0.3-0.2-0.6-0.4-0.9-0.6
				C187.9,250.6,187.1,250.4,186.2,250.4L186.2,250.4z"/>
		</g>
	</g>
	<g>
		<path d="M52.6,99.5l8.4,19.5l-4.8,0.1l-1.6-4.3l-7.1,0.2l-1.4,4.4l-4.8,0.1l7.5-19.8L52.6,99.5 M48.3,112.3l5.3-0.1l-2.8-7.5
			L48.3,112.3 M55.2,95.5l-2.7,0.1l-3.9,0.1l-2.7,0.1l-1,2.5l-7.5,19.8l-2.1,5.5l5.9-0.1l4.8-0.1l2.8-0.1l0.9-2.7l0.6-1.7l1.5,0
			l0.6,1.7l1,2.7l2.8-0.1L61,123l5.9-0.1l-2.3-5.4L56.3,98L55.2,95.5L55.2,95.5z"/>
	</g>
	<g id="YCKK1F.tif_00000174583466324880455640000014150277704672106654_">
		<g>
			<path d="M55.9,131c1,0,2,0.3,2.9,1c2,1.4,3,4.2,2,6.8c-0.5,1.3-1.2,2.4-2.1,3.4c-1.9,2.3-4.2,4.1-6.7,5.7
				c-0.1,0.1-0.2,0.1-0.3,0.1c-0.1,0-0.2,0-0.3-0.1c-1.1-0.7-2.2-1.4-3.2-2.1c-1.7-1.2-3.2-2.5-4.5-4.1c-0.7-0.9-1.3-1.9-1.7-3
				c-0.1-0.4-0.2-0.8-0.3-1.1c0-0.3,0-0.6,0-0.9c0-0.1,0-0.1,0-0.2c0.1-1.3,0.6-2.4,1.4-3.4c1-1.2,2.3-1.8,3.8-1.8
				c0.1,0,0.3,0,0.4,0c1.7,0.1,2.9,1,3.9,2.3c0,0.1,0.1,0.1,0.1,0.2c0.3-0.3,0.5-0.7,0.8-1C53.2,131.5,54.5,131,55.9,131 M55.9,127
				c-1.6,0-3.2,0.5-4.6,1.3c-1.1-0.6-2.3-1-3.6-1.1c-0.2,0-0.5,0-0.7,0c-2.7,0-5,1.1-6.8,3.2c-1.3,1.6-2.1,3.4-2.3,5.5l-0.1,0.4
				l0,0.4l0,0.9l0,0.4l0.1,0.4c0,0.1,0,0.2,0.1,0.3c0.1,0.3,0.2,0.7,0.3,1.1c0.5,1.5,1.2,2.9,2.4,4.3c1.4,1.8,3.1,3.3,5.3,4.8
				c0.8,0.6,1.6,1.1,2.4,1.6c0.3,0.2,0.6,0.4,0.9,0.6c0.8,0.5,1.6,0.7,2.5,0.7c0.9,0,1.8-0.3,2.5-0.8c3.2-2.1,5.6-4.1,7.6-6.4
				c1.3-1.5,2.2-3,2.8-4.6c1.6-4.2,0.2-8.9-3.4-11.5C59.6,127.6,57.8,127,55.9,127L55.9,127z"/>
		</g>
	</g>
	<g>
		<path d="M196.7,283.6l-7.5,19.8l-3.9,0.1l-8.4-19.5l4.8-0.1l1.6,4.3l7.1-0.2l1.4-4.4L196.7,283.6 M189.6,290.8l-5.3,0.1l2.8,7.5
			L189.6,290.8 M202.5,279.5l-5.9,0.1l-4.8,0.1l-2.8,0.1l-0.9,2.7l-0.6,1.7l-1.5,0l-0.6-1.7l-1-2.7l-2.8,0.1l-4.8,0.1l-5.9,0.1
			l2.3,5.4l8.4,19.5l1.1,2.5l2.7-0.1l3.9-0.1l2.7-0.1l1-2.5l7.5-19.8L202.5,279.5L202.5,279.5z"/>
	</g>
	<g id="YCKK1F.tif_00000044179791736410753820000013705521875651544454_">
		<g>
			<path d="M132.4,9.5c4,0,8,1.2,11.6,3.8c7.7,5.5,11.8,16.5,7.9,26.9c-1.9,5-4.8,9.4-8.3,13.5c-7.6,8.9-16.6,16-26.4,22.3
				c-0.4,0.3-0.9,0.4-1.4,0.4c-0.4,0-0.9-0.1-1.3-0.4c-4.2-2.7-8.6-5.4-12.7-8.3c-6.5-4.6-12.5-9.8-17.5-16.1
				c-2.9-3.6-5.3-7.4-6.7-11.8c-0.5-1.5-0.7-3-1.1-4.5c0-1.2-0.1-2.4-0.1-3.6c0-0.2,0.1-0.4,0.1-0.7c0.4-5.1,2.2-9.6,5.5-13.5
				c4-4.7,9-7.2,15-7.2c0.5,0,1.1,0,1.6,0.1c6.6,0.5,11.6,3.8,15.3,9.1c0.2,0.3,0.4,0.5,0.5,0.7c1.1-1.4,2-2.8,3.1-4
				C121.6,11.8,126.9,9.5,132.4,9.5 M132.4,5.5c-6.7,0-13.1,2.9-17.7,7.9c-0.1,0.1-0.1,0.2-0.2,0.2c-4.2-4.4-9.4-6.9-15.5-7.3
				c-0.6,0-1.3-0.1-1.9-0.1c-7.1,0-13.1,2.9-18,8.6c-3.8,4.4-5.9,9.6-6.5,15.7l0,0c0,0.1,0,0.2-0.1,0.3l-0.1,0.4l0,0.4l0.1,3.5
				l0,0.1l0,0.4l0.1,0.4c0.1,0.4,0.2,0.9,0.3,1.3c0.2,1.1,0.5,2.3,0.9,3.5c1.4,4.4,3.7,8.6,7.4,13.1c4.9,6,10.9,11.5,18.3,16.8
				c3,2.1,6.1,4.1,9.1,6c1.3,0.8,2.5,1.6,3.8,2.4c1.1,0.7,2.3,1.1,3.5,1.1c1.2,0,2.4-0.4,3.5-1.1c11.5-7.4,20.2-14.8,27.3-23.1
				c4.2-4.9,7.1-9.7,9-14.7c4.3-11.4,0.4-24.6-9.3-31.5C142.1,7.1,137.3,5.5,132.4,5.5L132.4,5.5z"/>
		</g>
	</g>
	<g id="YCKK1F.tif_00000119840283894347081420000000420933138962723467_">
		<g>
			<path d="M114.8,25.4c0.3,0,0.5,0.1,0.8,0.3c2.6,1.7,5.2,3.3,7.7,5c4,2.8,7.6,6,10.7,9.8c1.7,2.2,3.2,4.5,4.1,7.2
				c0.3,0.9,0.4,1.8,0.6,2.7c0,0.7,0,1.5,0,2.2c0,0.1-0.1,0.3-0.1,0.4c-0.3,3.1-1.3,5.9-3.4,8.2c-2.4,2.8-5.5,4.4-9.1,4.4
				c-0.3,0-0.7,0-1,0c-4-0.3-7-2.3-9.3-5.5c-0.1-0.2-0.2-0.3-0.3-0.4c-0.6,0.8-1.2,1.7-1.9,2.4c-2.4,2.7-5.6,4-8.9,4
				c-2.4,0-4.9-0.7-7-2.3c-4.7-3.3-7.2-10.1-4.8-16.3c1.2-3.1,2.9-5.7,5-8.2c4.6-5.4,10.1-9.7,16-13.6
				C114.2,25.5,114.5,25.4,114.8,25.4 M114.8,21.4c-1,0-2.1,0.3-3,0.9c-7.1,4.6-12.5,9.2-16.9,14.3c-2.6,3.1-4.5,6.2-5.7,9.4
				c-2.8,7.6-0.2,16.4,6.2,21c2.8,2,6,3,9.4,3c4,0,7.9-1.6,10.9-4.3c2.6,2.3,5.8,3.6,9.2,3.8c0.4,0,0.9,0,1.3,0
				c4.7,0,8.9-2,12.2-5.8c2.5-2.9,3.9-6.4,4.3-10.3c0-0.1,0-0.1,0-0.2l0.1-0.4l0-0.4l0-2.2l0-0.4l-0.1-0.4c-0.1-0.3-0.1-0.5-0.2-0.8
				c-0.1-0.7-0.3-1.4-0.6-2.2c-0.9-2.9-2.4-5.6-4.8-8.5c-3-3.8-6.8-7.2-11.5-10.5c-1.8-1.3-3.7-2.5-5.6-3.7c-0.8-0.5-1.5-1-2.3-1.5
				C116.8,21.7,115.8,21.4,114.8,21.4L114.8,21.4z"/>
		</g>
	</g>
	<g id="YCKK1F.tif_00000125588778980467559840000016915422904930127533_">
		<g>
			<path d="M118.8,29.6c0.9,0,1.8,0.3,2.5,0.8c1.7,1.2,2.6,3.6,1.7,5.9c-0.4,1.1-1.1,2.1-1.8,3c-1.7,2-3.7,3.5-5.8,4.9
				c-0.1,0.1-0.2,0.1-0.3,0.1c-0.1,0-0.2,0-0.3-0.1c-0.9-0.6-1.9-1.2-2.8-1.8c-1.4-1-2.8-2.2-3.9-3.5c-0.6-0.8-1.2-1.6-1.5-2.6
				c-0.1-0.3-0.2-0.7-0.2-1c0-0.3,0-0.5,0-0.8c0,0,0-0.1,0-0.1c0.1-1.1,0.5-2.1,1.2-3c0.9-1,2-1.6,3.3-1.6c0.1,0,0.2,0,0.4,0
				c1.4,0.1,2.6,0.8,3.4,2c0,0.1,0.1,0.1,0.1,0.2c0.2-0.3,0.4-0.6,0.7-0.9C116.4,30.1,117.6,29.6,118.8,29.6 M118.8,25.6
				c-1.4,0-2.8,0.4-4,1c-1-0.5-2-0.8-3.1-0.8c-0.2,0-0.4,0-0.7,0c-2.5,0-4.7,1-6.3,3c-1.2,1.4-2,3.1-2.2,5l-0.1,0.4l0,0.4l0,0.8
				l0,0.4l0.1,0.4l0.1,0.2c0.1,0.3,0.1,0.6,0.3,1c0.4,1.3,1.1,2.6,2.2,3.9c1.3,1.6,2.8,3,4.7,4.3c0.7,0.5,1.4,1,2.1,1.4
				c0.3,0.2,0.5,0.3,0.8,0.5c0.7,0.5,1.6,0.7,2.5,0.7c0.9,0,1.7-0.3,2.5-0.7c2.8-1.8,4.9-3.6,6.7-5.7c1.2-1.4,2-2.7,2.5-4.2
				c1.5-3.9,0.2-8.2-3.2-10.6C122.2,26.1,120.5,25.6,118.8,25.6L118.8,25.6z"/>
		</g>
	</g>
	<path d="M60.5,365.7c4.4,0,8.1,3.6,8.2,8c0,1.7-0.4,3.2-1.3,4.5c1.9,2,3.2,4.7,3.2,7.7v0c0.1,6.3-4.9,11.6-11.2,11.7l-35.7,0.8
		c-0.1,0-0.2,0-0.3,0c-6.2,0-11.3-5-11.5-11.2v0c-0.1-6.3,4.9-11.6,11.2-11.7l7.5-0.2c0-0.3-0.1-0.5-0.1-0.8c-0.1-4.5,3.5-8.2,8-8.3
		l21.7-0.5C60.4,365.7,60.4,365.7,60.5,365.7 M60.5,359.7c-0.1,0-0.2,0-0.3,0l-21.7,0.5c-6,0.1-11,4-13,9.3l-2.4,0.1
		c-9.6,0.2-17.3,8.2-17.1,17.9c0.2,9.4,8,17.1,17.5,17.1c0.1,0,0.3,0,0.4,0l35.7-0.8c4.7-0.1,9-2,12.2-5.4c3.2-3.4,5-7.8,4.9-12.5
		c-0.1-3-0.9-5.9-2.4-8.4c0.3-1.2,0.5-2.5,0.4-3.8C74.5,365.9,68.1,359.7,60.5,359.7L60.5,359.7z"/>
	<path d="M210.3,362.6c4.4,0,8.1,3.6,8.2,8c0,0.3,0,0.5-0.1,0.8l7.5-0.2c0.1,0,0.2,0,0.3,0c6.2,0,11.3,5,11.5,11.2v0
		c0.1,6.3-4.9,11.6-11.2,11.7l-35.7,0.8c-0.1,0-0.2,0-0.3,0c-6.2,0-11.3-5-11.5-11.2v0c-0.1-3,1-5.7,2.9-7.8
		c-0.9-1.3-1.4-2.8-1.5-4.5c-0.1-4.5,3.5-8.2,8-8.3l21.7-0.5C210.2,362.6,210.2,362.6,210.3,362.6 M210.3,356.6c-0.1,0-0.2,0-0.3,0
		l-21.7,0.5c-3.8,0.1-7.3,1.6-9.9,4.4c-2.6,2.7-4,6.3-3.9,10.1c0,1.3,0.2,2.6,0.6,3.8c-1.4,2.6-2.1,5.5-2,8.5
		c0.2,9.4,8,17.1,17.5,17.1c0.1,0,0.3,0,0.4,0l35.7-0.8c4.7-0.1,9-2,12.2-5.4c3.2-3.4,5-7.8,4.9-12.5c-0.2-9.4-8-17.1-17.5-17.1
		c-0.1,0-0.3,0-0.4,0l-2.5,0.1C221.2,360.2,216.1,356.6,210.3,356.6L210.3,356.6z"/>
	<path d="M50.8,327.5c1.5,0,2.7,1.2,2.7,2.7l0.6,28c0,1.5-1.2,2.7-2.7,2.8l-1.7,0c0,0,0,0-0.1,0c-1.5,0-2.7-1.2-2.7-2.7l-0.6-28
		c0-1.5,1.2-2.7,2.7-2.8L50.8,327.5C50.8,327.5,50.8,327.5,50.8,327.5 M50.8,323.5l-0.1,0l-1.7,0c-1.8,0-3.5,0.8-4.7,2.1
		c-1.2,1.3-1.9,3-1.9,4.8l0.6,28c0.1,3.6,3.1,6.6,6.7,6.6l0.1,0l1.7,0c1.8,0,3.5-0.8,4.7-2.1c1.2-1.3,1.9-3,1.9-4.8l-0.6-28
		C57.5,326.4,54.5,323.5,50.8,323.5L50.8,323.5z"/>
	<path d="M198.3,324.4c1.5,0,2.7,1.2,2.7,2.7l0.6,28c0,1.5-1.2,2.7-2.7,2.8l-1.7,0c0,0,0,0-0.1,0c-1.5,0-2.7-1.2-2.7-2.7l-0.6-28
		c0-1.5,1.2-2.7,2.7-2.8L198.3,324.4C198.3,324.4,198.3,324.4,198.3,324.4 M198.3,320.4l-0.1,0l-1.7,0c-1.8,0-3.5,0.8-4.7,2.1
		c-1.2,1.3-1.9,3-1.9,4.8l0.6,28c0.1,3.6,3.1,6.6,6.7,6.6l0.1,0l1.7,0c3.7-0.1,6.7-3.2,6.6-6.9l-0.6-28
		C204.9,323.4,201.9,320.4,198.3,320.4L198.3,320.4z"/>
</g>
<path d="M67,68.8c2.3,0,4.3,1.9,4.3,4.2v0c0,2.4-1.8,4.3-4.2,4.4l-53.5,1.1c0,0-0.1,0-0.1,0c-2.3,0-4.3-1.9-4.3-4.2
	c0-2.4,1.8-4.3,4.2-4.4L67,68.8C66.9,68.8,67,68.8,67,68.8 M67,64.8l-0.2,0l-53.5,1.1c-2.2,0-4.3,1-5.8,2.6
	c-1.5,1.6-2.4,3.7-2.3,5.9c0.1,4.5,3.8,8.1,8.3,8.1l0.2,0l53.5-1.1c2.2,0,4.3-1,5.8-2.6s2.4-3.7,2.3-5.9
	C75.2,68.4,71.5,64.8,67,64.8L67,64.8z"/>
<path d="M217.9,63.7c2.3,0,4.3,1.9,4.3,4.2c0,2.4-1.8,4.3-4.2,4.4l-53.5,1.1c0,0-0.1,0-0.1,0c-2.3,0-4.3-1.9-4.3-4.2
	c0-2.4,1.8-4.3,4.2-4.4L217.9,63.7C217.8,63.7,217.9,63.7,217.9,63.7 M217.9,59.7l-0.2,0l-53.5,1.1c-2.2,0-4.3,1-5.8,2.6
	c-1.5,1.6-2.4,3.7-2.3,5.9c0.1,4.5,3.8,8.1,8.3,8.1l0.2,0l53.5-1.1c2.2,0,4.3-1,5.8-2.6c1.5-1.6,2.4-3.7,2.3-5.9
	C226.1,63.3,222.4,59.7,217.9,59.7L217.9,59.7z"/>
</svg>
